<svg xmlns="http://www.w3.org/2000/svg" width="32" height="32" viewBox="0 0 64 64" role="img"><title>coffee paw 32px</title><defs><radialGradient id="fur" cx=".38" cy=".22" r=".85"><stop offset="0" stop-color="#FFFFFF"/><stop offset="0.65" stop-color="#FFF9F5"/><stop offset="1" stop-color="#E9D9CD"/></radialGradient><radialGradient id="fluff" cx=".4" cy=".2" r=".85"><stop offset="0" stop-color="#FFFDF9"/><stop offset="0.6" stop-color="#FFF9F5"/><stop offset="1" stop-color="#E7D7CC"/></radialGradient><radialGradient id="pointer" cx=".32" cy=".22" r=".85"><stop offset="0" stop-color="#FFFFFF"/><stop offset="0.7" stop-color="#FFF9F5"/><stop offset="1" stop-color="#EFE1D7"/></radialGradient><radialGradient id="bell" cx=".28" cy=".22" r=".85"><stop offset="0" stop-color="#FFF0BF"/><stop offset="0.48" stop-color="#F7D491"/><stop offset="1" stop-color="#D99C53"/></radialGradient><radialGradient id="gray-pad" cx=".3" cy=".2" r=".85"><stop offset="0" stop-color="#D9D2CD"/><stop offset="0.4" stop-color="#BDB4AE"/><stop offset="1" stop-color="#9E938B"/></radialGradient><radialGradient id="pink-pad" cx=".28" cy=".2" r=".9"><stop offset="0" stop-color="#FFD0D4"/><stop offset=".46" stop-color="#F4A6AE"/><stop offset="1" stop-color="#CF8790"/></radialGradient><radialGradient id="coffee-pad" cx=".28" cy=".2" r=".9"><stop offset="0" stop-color="#C89278"/><stop offset=".46" stop-color="#9A6652"/><stop offset="1" stop-color="#815442"/></radialGradient></defs><g transform="translate(2 1) scale(.94) rotate(-12 32 32)" ><path d="M11 30 C4 27 6 17 13 15 C11 7 19 3 25 7 C29 1 38 3 40 10 C48 5 56 12 53 21 C61 24 59 33 55 37 C63 51 48 60 36 60 C20 62 7 53 9 42 C4 38 6 32 11 30Z" fill="#CAB5A6" stroke="none" stroke-width="1" stroke-linejoin="round" stroke-linecap="round" transform="translate(.5 1)" opacity=".18"/><path d="M11 30 C4 27 6 17 13 15 C11 7 19 3 25 7 C29 1 38 3 40 10 C48 5 56 12 53 21 C61 24 59 33 55 37 C63 51 48 60 36 60 C20 62 7 53 9 42 C4 38 6 32 11 30Z" fill="url(#fur)" stroke="#9B8070" stroke-width="1.8" stroke-linejoin="round" stroke-linecap="round" /><ellipse cx="14" cy="27.8" rx="4.95" ry="6.1" fill="#D8BEB1" opacity=".23"/><ellipse cx="14" cy="27" rx="4.5" ry="5.8" fill="url(#coffee-pad)" transform="rotate(-26 14 27)"/><ellipse cx="23" cy="16.8" rx="5.25" ry="6.6" fill="#D8BEB1" opacity=".23"/><ellipse cx="23" cy="16" rx="4.8" ry="6.3" fill="url(#coffee-pad)" transform="rotate(-17 23 16)"/><ellipse cx="36" cy="13.8" rx="5.15" ry="6.6" fill="#D8BEB1" opacity=".23"/><ellipse cx="36" cy="13" rx="4.7" ry="6.3" fill="url(#coffee-pad)" transform="rotate(4 36 13)"/><ellipse cx="48" cy="23.8" rx="4.55" ry="5.7" fill="#D8BEB1" opacity=".23"/><ellipse cx="48" cy="23" rx="4.1" ry="5.4" fill="url(#coffee-pad)" transform="rotate(24 48 23)"/><path d="M22 37 C22 31 28 28 33 30 C39 26 47 30 47 36 C49 43 43 46 37 47 C31 53 23 53 20 47 C18 43 19 39 22 37Z" fill="#DDB6A8" stroke="none" stroke-width="1" stroke-linejoin="round" stroke-linecap="round" transform="translate(.2 .8)" opacity=".25"/><path d="M22 37 C22 31 28 28 33 30 C39 26 47 30 47 36 C49 43 43 46 37 47 C31 53 23 53 20 47 C18 43 19 39 22 37Z" fill="url(#coffee-pad)" stroke="none" stroke-width="1" stroke-linejoin="round" stroke-linecap="round" /></g></svg>
