<svg xmlns="http://www.w3.org/2000/svg" width="32" height="32" viewBox="0 0 32 32"><defs>
      <linearGradient id="ice" x1="0" y1="0" x2="1" y2="1"><stop stop-color="#ffede7" stop-opacity=".82"/><stop offset=".45" stop-color="#efc2a6" stop-opacity=".38"/><stop offset="1" stop-color="#cda463" stop-opacity=".64"/></linearGradient>
      <linearGradient id="lilac" x1="0" y1="1" x2="1" y2="0"><stop stop-color="#b6ac68" stop-opacity=".7"/><stop offset=".55" stop-color="#ede5bb" stop-opacity=".32"/><stop offset="1" stop-color="#fffee7" stop-opacity=".72"/></linearGradient>
      <linearGradient id="refract" x1="0" y1="0" x2="1" y2=".8"><stop stop-color="#e1ac7b" stop-opacity=".16"/><stop offset=".48" stop-color="#ffeeec" stop-opacity=".82"/><stop offset=".53" stop-color="#e9b99c" stop-opacity=".27"/><stop offset="1" stop-color="#dfe0a1" stop-opacity=".48"/></linearGradient>
      <!-- 固定左上光源：各表面独立明暗，底缘压暗，柱身使用连续色阶表现透光深度。 -->
      <linearGradient id="tableLight" x1="0" y1="0" x2=".8" y2="1"><stop stop-color="#ffeeec" stop-opacity=".9"/><stop offset=".58" stop-color="#f4cfb6" stop-opacity=".62"/><stop offset="1" stop-color="#d1b686" stop-opacity=".65"/></linearGradient>
      <linearGradient id="frontLight" x1="0" y1="0" x2=".25" y2="1"><stop stop-color="#ffe2d7" stop-opacity=".88"/><stop offset=".3" stop-color="#e5bc94" stop-opacity=".66"/><stop offset="1" stop-color="#9e8149" stop-opacity=".78"/></linearGradient>
      <linearGradient id="rightShade" x1="0" y1="0" x2="1" y2="1"><stop stop-color="#d5b784" stop-opacity=".7"/><stop offset=".65" stop-color="#9b8046" stop-opacity=".8"/><stop offset="1" stop-color="#b4b779" stop-opacity=".66"/></linearGradient>
      <linearGradient id="columnLight" x1="0" y1="0" x2=".8" y2="1"><stop stop-color="#ffe0d2" stop-opacity=".84"/><stop offset=".3" stop-color="#e0b78b" stop-opacity=".5"/><stop offset=".62" stop-color="#ffebe4" stop-opacity=".9"/><stop offset="1" stop-color="#d4b988" stop-opacity=".72"/></linearGradient>
      <linearGradient id="columnShade" x1="0" y1="0" x2=".7" y2="1"><stop stop-color="#a88a53" stop-opacity=".78"/><stop offset=".45" stop-color="#e0d0a3" stop-opacity=".5"/><stop offset="1" stop-color="#9c854b" stop-opacity=".8"/></linearGradient>
      </defs>
      <!-- 仅保留外壳与互不重叠的表面切面，去掉内部骨架和交叉光带产生的杂质重影。 -->
      <!-- 底座在上版基础上再缩小 15%，累计为原尺寸的 72.25%，固定柱脚连接点。 -->
      <g transform="translate(16 25) scale(.7225) translate(-16 -25)">
      <path d="M10 25 L13 23.8 L19 23.8 L22 25 L22 27.1 L19.4 28.5 L12.6 28.5 L10 27.1 Z" fill="#edc7ae" fill-opacity=".25"/>
      <!-- 台面仅通过大块透色切面表现折射，不叠加柱脚或内部零件形状。 -->
      <path d="M10 25 L13 23.8 L15.6 25.6 L13 26.4 Z" fill="url(#tableLight)"/>
      <path d="M13 23.8 L19 23.8 L15.6 25.6 Z" fill="#ffe4d8" fill-opacity=".68"/>
      <path d="M19 23.8 L22 25 L19 26.4 L15.6 25.6 Z" fill="url(#lilac)"/>
      <path d="M13 26.4 L15.6 25.6 L19 26.4 Z" fill="#daad82" fill-opacity=".6"/>
      <path d="M10 25 L13 26.4 L12.6 28.5 L10 27.1 Z" fill="url(#frontLight)"/>
      <path d="M13 26.4 L19 26.4 L16.8 27.45 L12.6 28.5 Z" fill="url(#frontLight)"/>
      <path d="M19 26.4 L19.4 28.5 L12.6 28.5 L16.8 27.45 Z" fill="url(#rightShade)"/>
      <path d="M19 26.4 L22 25 L22 27.1 L19.4 28.5 Z" fill="url(#rightShade)"/>
      <path d="M10 25 L13 23.8 L19 23.8 L22 25 L22 27.1 L19.4 28.5 L12.6 28.5 L10 27.1 Z" fill="none" stroke="#997a47" stroke-opacity=".72" stroke-width=".25"/>
      <path d="M10.2 25 L13.1 23.95 L18.8 23.95 M10.15 25.1 L13 26.4 L19 26.4 L21.85 25.1 M12.8 28.25 L19.3 28.25" fill="none" stroke="#fff0ef" stroke-opacity=".87" stroke-width=".2"/>
      <path d="M13 26.4 L12.6 28.3 M19 26.4 L19.4 28.3" fill="none" stroke="#f6d6b4" stroke-width=".16"/>
      <!-- 柱体直接连接台面，连续纵向切面代替内部三角碎片与独立底脚。 -->
      </g>
      <path d="M15.05 14.5 L16 14.1 L16.95 14.5 L17.1 24.4 L16 25 L14.9 24.4 Z" fill="#efc7b0" fill-opacity=".35"/>
      <path d="M15.05 14.5 L15.5 14.75 L15.65 24.65 L14.9 24.4 Z" fill="#b99964" fill-opacity=".7"/>
      <path d="M15.5 14.75 L16 14.1 L16 25 L15.65 24.65 Z" fill="url(#columnLight)"/>
      <path d="M16 14.1 L16.95 14.5 L16.45 24.7 L16 25 Z" fill="url(#columnShade)"/>
      <path d="M16.95 14.5 L17.1 24.4 L16.45 24.7 Z" fill="#ad9156" fill-opacity=".62"/>
      <path d="M15.05 14.5 L16 14.1 L16.95 14.5 L17.1 24.4 L16 25 L14.9 24.4 Z" fill="none" stroke="#ac9263" stroke-opacity=".68" stroke-width=".19"/>
      <path d="M15.12 14.7 L14.99 24.2 M15.55 14.9 L15.68 24.5" fill="none" stroke="#fff1f0" stroke-opacity=".9" stroke-width=".14"/>
      <!-- 柱顶承托台与底座共享透明斜面，保持材料连续。 -->
      <path d="M13.9 14.2 L16 13.55 L18.1 14.2 L17.6 15.05 L16 15.5 L14.4 15.05 Z" fill="url(#lilac)" stroke="#ab9163" stroke-width=".2"/>
      <path d="M13.9 14.2 L16 13.55 L16.25 14.6 L16 14.9 Z" fill="url(#ice)"/>
      <path d="M16 13.55 L18.1 14.2 L16 14.9 L16.25 14.6 Z" fill="url(#refract)"/>
      <path d="M14.15 14.3 L16 14.9 L17.85 14.3 M14.45 15 L16 15.35" fill="none" stroke="#fff0ef" stroke-opacity=".8" stroke-width=".16"/><defs>
      <linearGradient id="surfaceReflection" x1="0" y1="0" x2=".8" y2="1"><stop stop-color="#fff1f0" stop-opacity=".8"/><stop offset=".55" stop-color="#ffdec8" stop-opacity=".18"/><stop offset="1" stop-color="#efe4b4" stop-opacity="0"/></linearGradient>
      </defs><g opacity="0.1305">
      <path d="M15.5 14.75 L16 14.1 L16 25 L15.65 24.65 Z" fill="url(#surfaceReflection)"/>
      <path d="M15.55 14.9 L15.68 24.5" fill="none" stroke="#fff0ef" stroke-width=".22"/>
      <!-- 表面反光与底座共用缩放中心，避免高光越出缩小后的轮廓。 -->
      <g transform="translate(16 25) scale(.7225) translate(-16 -25)">
      <path d="M10 25 L13 23.8 L15.6 25.6 L13 26.4 Z" fill="url(#surfaceReflection)"/>
      <path d="M10.2 25.1 L13 26.4 L18.8 26.4" fill="none" stroke="#fff0ef" stroke-width=".22"/>
      </g>
      </g><g transform="translate(0 -0.0000) rotate(3.9525 16 7.4) translate(16 2.3) rotate(24.624) scale(.39) translate(-6 -3)"><defs>
    <linearGradient id="text_body" x1="0" y1="0" x2="1" y2="1"><stop stop-color="#fff2e9"/><stop offset=".55" stop-color="#facaa1"/><stop offset="1" stop-color="#fffed8"/></linearGradient>
    <linearGradient id="text_crown" x1="0" y1="0" x2=".8" y2="1"><stop stop-color="#ffe7b9"/><stop offset=".40" stop-color="#fffaf9"/><stop offset=".70" stop-color="#fff1ea"/><stop offset="1" stop-color="#f2ab7d"/></linearGradient>
    <linearGradient id="text_left" x1="0" y1="0" x2="1" y2=".5"><stop stop-color="#a67d32"/><stop offset=".32" stop-color="#dc8e4e"/><stop offset=".78" stop-color="#ffcdbb"/><stop offset="1" stop-color="#ffebe9"/></linearGradient>
    <linearGradient id="text_right" x1="0" y1="0" x2=".7" y2="1"><stop stop-color="#f0b772"/><stop offset=".36" stop-color="#cba354"/><stop offset=".7" stop-color="#ffeed4"/><stop offset="1" stop-color="#f6ffed"/></linearGradient>
    <linearGradient id="text_foot" x1="0" y1="0" x2="1" y2="1"><stop stop-color="#ffc4b1"/><stop offset=".48" stop-color="#d98d51"/><stop offset=".52" stop-color="#ffe1d8"/><stop offset="1" stop-color="#eaeeb4"/></linearGradient>
    <linearGradient id="text_violet" x1="0" y1="0" x2="1" y2="1"><stop stop-color="#ffdbcb"/><stop offset=".5" stop-color="#e0e48e"/><stop offset="1" stop-color="#f3ffd0"/></linearGradient>
    <linearGradient id="text_inner" x1="0" y1="0" x2="1" y2="0"><stop stop-color="#a68834" stop-opacity=".7"/><stop offset=".5" stop-color="#ffe8e0" stop-opacity=".25"/><stop offset="1" stop-color="#fffbfb" stop-opacity=".8"/></linearGradient>
    <linearGradient id="text_refract" x1="0" y1="0" x2="1" y2="1"><stop stop-color="#fff4f3"/><stop offset=".46" stop-color="#ffddc2" stop-opacity=".7"/><stop offset="1" stop-color="#ecf4ba" stop-opacity=".4"/></linearGradient>
    <linearGradient id="text_text" x1="0" y1="0" x2="1" y2="0"><stop stop-color="#e7b076"/><stop offset=".48" stop-color="#fff5f4"/><stop offset="1" stop-color="#fff0a6"/></linearGradient>
    <radialGradient id="text_shadow"><stop stop-color="#dbb157" stop-opacity=".25"/><stop offset=".55" stop-color="#e2b46c" stop-opacity=".10"/><stop offset="1" stop-color="#edcd8d" stop-opacity="0"/></radialGradient>
    <radialGradient id="text_halo"><stop stop-color="#fffbbe" stop-opacity=".10"/><stop offset=".6" stop-color="#ffcea7" stop-opacity=".07"/><stop offset="1" stop-color="#ffead4" stop-opacity="0"/></radialGradient>
<linearGradient id="text_edgeIce" x1="0" y1="0" x2="1" y2="1"><stop offset="0.0" stop-color="#fff4ed"/><stop offset="0.5" stop-color="#e2ac4e"/><stop offset="1.0" stop-color="#ffebe9"/></linearGradient>
<linearGradient id="text_edgeIndigo" x1="0" y1="0" x2="1" y2="1"><stop offset="0.0" stop-color="#9b7217"/><stop offset="0.5" stop-color="#ffcd83"/><stop offset="1.0" stop-color="#c0c666"/></linearGradient>
<linearGradient id="text_edgeLilac" x1="0" y1="0" x2="1" y2="1"><stop offset="0.0" stop-color="#e6e092"/><stop offset="0.5" stop-color="#f9fff5"/><stop offset="1.0" stop-color="#caa047"/></linearGradient>
<linearGradient id="text_edgeBlue" x1="0" y1="0" x2="1" y2="1"><stop offset="0.0" stop-color="#94762d"/><stop offset="0.5" stop-color="#ffb094"/><stop offset="1.0" stop-color="#ca7a31"/></linearGradient>
<linearGradient id="text_tableLight" x1="0" y1="0" x2="1" y2="1"><stop offset="0.0" stop-color="#ffe9d0"/><stop offset="0.5" stop-color="#ffffff"/><stop offset="1.0" stop-color="#f7d2ac"/></linearGradient>
<linearGradient id="text_tableBlue" x1="0" y1="0" x2="1" y2="1"><stop offset="0.0" stop-color="#d59752"/><stop offset="0.5" stop-color="#ffe6de"/><stop offset="1.0" stop-color="#edb283"/></linearGradient>
<linearGradient id="text_tableIce" x1="0" y1="0" x2="1" y2="1"><stop offset="0.0" stop-color="#ffe0d8"/><stop offset="0.5" stop-color="#ea8855"/><stop offset="1.0" stop-color="#fff7f1"/></linearGradient>
<linearGradient id="text_tableLilac" x1="0" y1="0" x2="1" y2="1"><stop offset="0.0" stop-color="#d9c871"/><stop offset="0.5" stop-color="#fffdd8"/><stop offset="1.0" stop-color="#f9fff7"/></linearGradient>
<linearGradient id="text_reflectedBlue" x1="0" y1="0" x2="1" y2="1"><stop offset="0.0" stop-color="#ffeae8"/><stop offset="0.5" stop-color="#cc7b40"/><stop offset="1.0" stop-color="#ffcdbb"/></linearGradient>
    <linearGradient id="text_depthGlass" x1="0" y1="0" x2=".85" y2="1"><stop stop-color="#ae9438" stop-opacity=".24"/><stop offset=".4" stop-color="#efaf80" stop-opacity=".08"/><stop offset=".72" stop-color="#d6cc71" stop-opacity=".27"/><stop offset="1" stop-color="#f4ffd8" stop-opacity=".13"/></linearGradient>
    <linearGradient id="text_iceRefraction" x1="0" y1="0" x2="1" y2=".7"><stop stop-color="#df9958" stop-opacity=".06"/><stop offset=".35" stop-color="#ffb494" stop-opacity=".36"/><stop offset=".53" stop-color="#fff4f3" stop-opacity=".72"/><stop offset=".65" stop-color="#eb9765" stop-opacity=".22"/><stop offset="1" stop-color="#ffd4b9" stop-opacity="0"/></linearGradient>
    <linearGradient id="text_violetRefraction" x1="0" y1="1" x2="1" y2="0"><stop stop-color="#d5b462" stop-opacity="0"/><stop offset=".35" stop-color="#e5efa6" stop-opacity=".31"/><stop offset=".52" stop-color="#f5ffea" stop-opacity=".59"/><stop offset=".7" stop-color="#f6b48f" stop-opacity=".18"/><stop offset="1" stop-color="#ffdbb5" stop-opacity="0"/></linearGradient>
    <linearGradient id="text_clearIce" x1="0" y1="0" x2="1" y2="1"><stop stop-color="#fff0ef" stop-opacity=".98"/><stop offset=".28" stop-color="#facdb2" stop-opacity=".94"/><stop offset=".55" stop-color="#ffede7" stop-opacity=".88"/><stop offset=".78" stop-color="#e5a778" stop-opacity=".96"/><stop offset="1" stop-color="#ffe2d1" stop-opacity=".98"/></linearGradient>
    <linearGradient id="text_clearLilac" x1="0" y1="0" x2="1" y2=".85"><stop stop-color="#e6b988" stop-opacity=".98"/><stop offset=".32" stop-color="#fadac5" stop-opacity=".94"/><stop offset=".58" stop-color="#fff4e8" stop-opacity=".90"/><stop offset=".82" stop-color="#e9dba9" stop-opacity=".96"/><stop offset="1" stop-color="#fffbe3" stop-opacity=".98"/></linearGradient>
    </defs><polygon points="6.0000,3.0000 19.2648,16.6686 17.5705,17.4452" fill="url(#text_clearIce)" stroke="none" stroke-width="0.7" stroke-linejoin="round" stroke-linecap="round"/><polygon points="6.0000,3.0000 19.2648,16.6686 17.5705,17.4452" fill="#917328" fill-opacity="0.5608" stroke="none" stroke-width="0" stroke-linejoin="round" stroke-linecap="round"/><polygon points="6.4553,3.5154 18.9905,16.4323 17.3894,17.1661" fill="#fff0ef" fill-opacity="0.0235" stroke="none" stroke-width="0.7" stroke-linejoin="round" stroke-linecap="round"/><defs><linearGradient id="text_sheen3" gradientUnits="userSpaceOnUse" x1="13.019103557458012" y1="10.249245121534337" x2="15.038276057189833" y2="13.569435871657252"><stop stop-color="#ffebe4" stop-opacity="0"/><stop offset=".3" stop-color="#ffe3d6" stop-opacity="0.03814652957463185"/><stop offset=".5" stop-color="#ffffff" stop-opacity="0.12715509858210616"/><stop offset=".7" stop-color="#f9ffdc" stop-opacity="0.03178877464552654"/><stop offset="1" stop-color="#f9ffdc" stop-opacity="0"/></linearGradient></defs><polygon points="10.2159,7.3905 14.6032,11.9114 17.7096,17.0194 11.0476,9.2487" fill="url(#text_sheen3)"/><defs><linearGradient id="text_sheen4" gradientUnits="userSpaceOnUse" x1="14.56667084704589" y1="11.928128500659524" x2="13.525930893339075" y2="12.405134312775147"><stop stop-color="#ffebe4" stop-opacity="0"/><stop offset=".3" stop-color="#ffe3d6" stop-opacity="0.014519096971183868"/><stop offset=".5" stop-color="#ffffff" stop-opacity="0.04839698990394623"/><stop offset=".7" stop-color="#f9ffdc" stop-opacity="0.012099247475986558"/><stop offset="1" stop-color="#f9ffdc" stop-opacity="0"/></linearGradient></defs><polygon points="6.4553,3.5154 18.9905,16.4323 17.3894,17.1661" fill="url(#text_sheen4)"/><polyline points="6.0000,3.0000 19.2648,16.6686" fill="none" stroke="#fff5f4" stroke-opacity="0.3725" stroke-width="0.42" stroke-linejoin="round" stroke-linecap="round"/><polyline points="11.4734,8.6863 14.4819,11.7864" fill="none" stroke="#ffc39b" stroke-opacity="0.0000" stroke-width="0.8" stroke-linejoin="round" stroke-linecap="round"/><polyline points="11.4734,8.6863 14.4819,11.7864" fill="none" stroke="#ffffff" stroke-opacity="0.0000" stroke-width="0.29" stroke-linejoin="round" stroke-linecap="round"/><polygon points="17.0000,27.0000 19.2648,16.6686 17.5705,17.4452" fill="url(#text_clearIce)" stroke="none" stroke-width="0.7" stroke-linejoin="round" stroke-linecap="round"/><polygon points="17.0000,27.0000 19.2648,16.6686 17.5705,17.4452" fill="#917328" fill-opacity="0.9490" stroke="none" stroke-width="0" stroke-linejoin="round" stroke-linecap="round"/><polygon points="17.0520,26.6354 19.1922,16.8723 17.5911,17.6061" fill="#fff0ef" fill-opacity="0.0000" stroke="none" stroke-width="0.7" stroke-linejoin="round" stroke-linecap="round"/><defs><linearGradient id="text_sheen11" gradientUnits="userSpaceOnUse" x1="18.189260864957625" y1="21.529588337897124" x2="17.843570864689443" y2="19.69007908802004"><stop stop-color="#ffebe4" stop-opacity="0"/><stop offset=".3" stop-color="#ffe3d6" stop-opacity="0.024682449379705124"/><stop offset=".5" stop-color="#ffffff" stop-opacity="0.08227483126568375"/><stop offset=".7" stop-color="#f9ffdc" stop-opacity="0.020568707816420936"/><stop offset="1" stop-color="#f9ffdc" stop-opacity="0"/></linearGradient></defs><polygon points="17.6940,23.7065 18.4431,20.2894 17.9113,17.4594 17.2784,22.8431" fill="url(#text_sheen11)"/><defs><linearGradient id="text_sheen12" gradientUnits="userSpaceOnUse" x1="18.406587513712555" y1="20.306128500659522" x2="17.36584756000574" y2="20.783134312775147"><stop stop-color="#ffebe4" stop-opacity="0"/><stop offset=".3" stop-color="#ffe3d6" stop-opacity="0.014400031940357931"/><stop offset=".5" stop-color="#ffffff" stop-opacity="0.04800010646785977"/><stop offset=".7" stop-color="#f9ffdc" stop-opacity="0.012000026616964943"/><stop offset="1" stop-color="#f9ffdc" stop-opacity="0"/></linearGradient></defs><polygon points="17.0520,26.6354 19.1922,16.8723 17.5911,17.6061" fill="url(#text_sheen12)"/><polyline points="17.0000,27.0000 19.2648,16.6686" fill="none" stroke="#fff5f4" stroke-opacity="0.1882" stroke-width="0.42" stroke-linejoin="round" stroke-linecap="round"/><polyline points="17.9088,22.7270 18.4224,20.3839" fill="none" stroke="#ffc39b" stroke-opacity="0.0000" stroke-width="0.8" stroke-linejoin="round" stroke-linecap="round"/><polyline points="17.9088,22.7270 18.4224,20.3839" fill="none" stroke="#ffffff" stroke-opacity="0.0000" stroke-width="0.29" stroke-linejoin="round" stroke-linecap="round"/><polygon points="6.0000,3.0000 9.3895,21.1948 7.6952,21.9714" fill="url(#text_clearLilac)" stroke="none" stroke-width="0.7" stroke-linejoin="round" stroke-linecap="round"/><polygon points="6.0000,3.0000 9.3895,21.1948 7.6952,21.9714" fill="#917328" fill-opacity="0.3725" stroke="none" stroke-width="0" stroke-linejoin="round" stroke-linecap="round"/><polygon points="6.0932,3.6814 9.2963,20.8755 7.6952,21.6093" fill="#fff0ef" fill-opacity="0.0510" stroke="none" stroke-width="0.7" stroke-linejoin="round" stroke-linecap="round"/><defs><linearGradient id="text_sheen19" gradientUnits="userSpaceOnUse" x1="7.785358256522992" y1="12.648045051129554" x2="7.68147381465765" y2="16.94130356615117"><stop stop-color="#ffebe4" stop-opacity="0"/><stop offset=".3" stop-color="#ffe3d6" stop-opacity="0.044459547062367225"/><stop offset=".5" stop-color="#ffffff" stop-opacity="0.14819849020789075"/><stop offset=".7" stop-color="#f9ffdc" stop-opacity="0.03704962255197269"/><stop offset="1" stop-color="#f9ffdc" stop-opacity="0"/></linearGradient></defs><polygon points="7.0542,8.8396 8.1752,14.8575 8.0154,21.4625 6.7660,11.2111" fill="url(#text_sheen19)"/><defs><linearGradient id="text_sheen20" gradientUnits="userSpaceOnUse" x1="8.138701092674339" y1="14.874281304746484" x2="7.0979611389675235" y2="15.351287116862107"><stop stop-color="#ffebe4" stop-opacity="0"/><stop offset=".3" stop-color="#ffe3d6" stop-opacity="0.01814410311171945"/><stop offset=".5" stop-color="#ffffff" stop-opacity="0.06048034370573151"/><stop offset=".7" stop-color="#f9ffdc" stop-opacity="0.015120085926432877"/><stop offset="1" stop-color="#f9ffdc" stop-opacity="0"/></linearGradient></defs><polygon points="6.0932,3.6814 9.2963,20.8755 7.6952,21.6093" fill="url(#text_sheen20)"/><polyline points="6.0000,3.0000 9.3895,21.1948" fill="none" stroke="#fff5f4" stroke-opacity="0.4588" stroke-width="0.42" stroke-linejoin="round" stroke-linecap="round"/><polyline points="7.3755,10.5646 8.1442,14.6911" fill="none" stroke="#ffc39b" stroke-opacity="0.0000" stroke-width="0.8" stroke-linejoin="round" stroke-linecap="round"/><polyline points="7.3755,10.5646 8.1442,14.6911" fill="none" stroke="#ffffff" stroke-opacity="0.0000" stroke-width="0.29" stroke-linejoin="round" stroke-linecap="round"/><polygon points="17.0000,27.0000 9.3895,21.1948 7.6952,21.9714" fill="url(#text_clearLilac)" stroke="none" stroke-width="0.7" stroke-linejoin="round" stroke-linecap="round"/><polygon points="17.0000,27.0000 9.3895,21.1948 7.6952,21.9714" fill="#917328" fill-opacity="0.8235" stroke="none" stroke-width="0" stroke-linejoin="round" stroke-linecap="round"/><polygon points="16.6899,26.8014 9.4980,21.3155 7.8969,22.0493" fill="#fff0ef" fill-opacity="0.0039" stroke="none" stroke-width="0.7" stroke-linejoin="round" stroke-linecap="round"/><defs><linearGradient id="text_sheen27" gradientUnits="userSpaceOnUse" x1="12.955515564022603" y1="23.928388267492345" x2="10.486768622157262" y2="23.061946782513957"><stop stop-color="#ffebe4" stop-opacity="0"/><stop offset=".3" stop-color="#ffe3d6" stop-opacity="0.02932222713159458"/><stop offset=".5" stop-color="#ffffff" stop-opacity="0.09774075710531527"/><stop offset=".7" stop-color="#f9ffdc" stop-opacity="0.024435189276328817"/><stop offset="1" stop-color="#f9ffdc" stop-opacity="0"/></linearGradient></defs><polygon points="14.5323,25.1556 12.0152,23.2355 8.2171,21.9025 12.9968,24.8055" fill="url(#text_sheen27)"/><defs><linearGradient id="text_sheen28" gradientUnits="userSpaceOnUse" x1="11.978617759341006" y1="23.252281304746486" x2="10.93787780563419" y2="23.729287116862107"><stop stop-color="#ffebe4" stop-opacity="0"/><stop offset=".3" stop-color="#ffe3d6" stop-opacity="0.014427128905105932"/><stop offset=".5" stop-color="#ffffff" stop-opacity="0.048090429683686445"/><stop offset=".7" stop-color="#f9ffdc" stop-opacity="0.012022607420921611"/><stop offset="1" stop-color="#f9ffdc" stop-opacity="0"/></linearGradient></defs><polygon points="16.6899,26.8014 9.4980,21.3155 7.8969,22.0493" fill="url(#text_sheen28)"/><polyline points="17.0000,27.0000 9.3895,21.1948" fill="none" stroke="#fff5f4" stroke-opacity="0.2471" stroke-width="0.42" stroke-linejoin="round" stroke-linecap="round"/><polyline points="13.8108,24.6052 12.0848,23.2886" fill="none" stroke="#ffc39b" stroke-opacity="0.0000" stroke-width="0.8" stroke-linejoin="round" stroke-linecap="round"/><polyline points="13.8108,24.6052 12.0848,23.2886" fill="none" stroke="#ffffff" stroke-opacity="0.0000" stroke-width="0.29" stroke-linejoin="round" stroke-linecap="round"/><polygon points="6.0000,3.0000 17.5705,17.4452 13.4800,19.3200" fill="url(#text_clearLilac)" stroke="none" stroke-width="0.7" stroke-linejoin="round" stroke-linecap="round"/><polygon points="6.0000,3.0000 17.5705,17.4452 13.4800,19.3200" fill="#917328" fill-opacity="0.1961" stroke="none" stroke-width="0" stroke-linejoin="round" stroke-linecap="round"/><polygon points="6.3493,3.5640 17.2833,17.2147 13.4179,18.9864" fill="#fff0ef" fill-opacity="0.0863" stroke="none" stroke-width="0.7" stroke-linejoin="round" stroke-linecap="round"/><defs><linearGradient id="text_sheen35" gradientUnits="userSpaceOnUse" x1="12.115910087052415" y1="10.755665403586566" x2="12.593360757038273" y2="14.782478659009712"><stop stop-color="#ffebe4" stop-opacity="0"/><stop offset=".3" stop-color="#ffe3d6" stop-opacity="0.0428885696649758"/><stop offset=".5" stop-color="#ffffff" stop-opacity="0.14296189888325267"/><stop offset=".7" stop-color="#f9ffdc" stop-opacity="0.03574047472081317"/><stop offset="1" stop-color="#f9ffdc" stop-opacity="0"/></linearGradient></defs><polygon points="9.6295,7.6592 13.4564,12.4370 14.1910,18.6321 9.3181,10.0414" fill="url(#text_sheen35)"/><defs><linearGradient id="text_sheen36" gradientUnits="userSpaceOnUse" x1="13.247825448093861" y1="12.532599308512538" x2="10.735256936951322" y2="13.684193209452868"><stop stop-color="#ffebe4" stop-opacity="0"/><stop offset=".3" stop-color="#ffe3d6" stop-opacity="0.0584514880709857"/><stop offset=".5" stop-color="#ffffff" stop-opacity="0.19483829356995233"/><stop offset=".7" stop-color="#f9ffdc" stop-opacity="0.04870957339248808"/><stop offset="1" stop-color="#f9ffdc" stop-opacity="0"/></linearGradient></defs><polygon points="6.3493,3.5640 17.2833,17.2147 13.4179,18.9864" fill="url(#text_sheen36)"/><polygon points="7.9894,5.6116 8.5361,6.2942 14.5002,18.4904 14.3069,18.5789" fill="#ffffff" fill-opacity="0.1216" stroke="none" stroke-width="0.7" stroke-linejoin="round" stroke-linecap="round"/><polyline points="6.0000,3.0000 17.5705,17.4452" fill="none" stroke="#fff5f4" stroke-opacity="0.5333" stroke-width="0.42" stroke-linejoin="round" stroke-linecap="round"/><polyline points="11.1788,9.5935 13.8030,12.8697" fill="none" stroke="#ffc39b" stroke-opacity="0.0000" stroke-width="0.8" stroke-linejoin="round" stroke-linecap="round"/><polyline points="11.1788,9.5935 13.8030,12.8697" fill="none" stroke="#ffffff" stroke-opacity="0.0000" stroke-width="0.29" stroke-linejoin="round" stroke-linecap="round"/><polygon points="17.0000,27.0000 17.5705,17.4452 13.4800,19.3200" fill="url(#text_clearLilac)" stroke="none" stroke-width="0.7" stroke-linejoin="round" stroke-linecap="round"/><polygon points="17.0000,27.0000 17.5705,17.4452 13.4800,19.3200" fill="#917328" fill-opacity="0.5882" stroke="none" stroke-width="0" stroke-linejoin="round" stroke-linecap="round"/><polygon points="16.9459,26.6840 17.4850,17.6547 13.6195,19.4264" fill="#fff0ef" fill-opacity="0.0196" stroke="none" stroke-width="0.7" stroke-linejoin="round" stroke-linecap="round"/><defs><linearGradient id="text_sheen44" gradientUnits="userSpaceOnUse" x1="17.234568228920516" y1="21.92364680402606" x2="15.347156398906371" y2="20.79076005944921"><stop stop-color="#ffebe4" stop-opacity="0"/><stop offset=".3" stop-color="#ffe3d6" stop-opacity="0.033709187734217515"/><stop offset=".5" stop-color="#ffffff" stop-opacity="0.11236395911405839"/><stop offset=".7" stop-color="#f9ffdc" stop-opacity="0.028090989778514597"/><stop offset="1" stop-color="#f9ffdc" stop-opacity="0"/></linearGradient></defs><polygon points="17.1077,23.9752 17.2963,20.8150 14.3926,19.0721 15.5488,23.6358" fill="url(#text_sheen44)"/><defs><linearGradient id="text_sheen45" gradientUnits="userSpaceOnUse" x1="17.087742114760527" y1="20.910599308512538" x2="14.575173603617989" y2="22.062193209452865"><stop stop-color="#ffebe4" stop-opacity="0"/><stop offset=".3" stop-color="#ffe3d6" stop-opacity="0.017490843638616402"/><stop offset=".5" stop-color="#ffffff" stop-opacity="0.05830281212872134"/><stop offset=".7" stop-color="#f9ffdc" stop-opacity="0.014575703032180335"/><stop offset="1" stop-color="#f9ffdc" stop-opacity="0"/></linearGradient></defs><polygon points="16.9459,26.6840 17.4850,17.6547 13.6195,19.4264" fill="url(#text_sheen45)"/><polyline points="17.0000,27.0000 17.5705,17.4452" fill="none" stroke="#fff5f4" stroke-opacity="0.3608" stroke-width="0.42" stroke-linejoin="round" stroke-linecap="round"/><polyline points="17.1840,22.6958 17.3134,20.5288" fill="none" stroke="#ffc39b" stroke-opacity="0.0000" stroke-width="0.8" stroke-linejoin="round" stroke-linecap="round"/><polyline points="17.1840,22.6958 17.3134,20.5288" fill="none" stroke="#ffffff" stroke-opacity="0.0000" stroke-width="0.29" stroke-linejoin="round" stroke-linecap="round"/><polygon points="6.0000,3.0000 13.4800,19.3200 9.3895,21.1948" fill="url(#text_clearIce)" stroke="none" stroke-width="0.7" stroke-linejoin="round" stroke-linecap="round"/><polygon points="6.0000,3.0000 13.4800,19.3200 9.3895,21.1948" fill="#917328" fill-opacity="0.1176" stroke="none" stroke-width="0" stroke-linejoin="round" stroke-linecap="round"/><polygon points="6.1993,3.6328 13.2679,19.0552 9.4024,20.8269" fill="#fff0ef" fill-opacity="0.1059" stroke="none" stroke-width="0.7" stroke-linejoin="round" stroke-linecap="round"/><defs><linearGradient id="text_sheen52" gradientUnits="userSpaceOnUse" x1="9.928871295324623" y1="11.758058183128469" x2="9.52692298641059" y2="16.187929303880736"><stop stop-color="#ffebe4" stop-opacity="0"/><stop offset=".3" stop-color="#ffe3d6" stop-opacity="0.044480301746265376"/><stop offset=".5" stop-color="#ffffff" stop-opacity="0.14826767248755127"/><stop offset=".7" stop-color="#f9ffdc" stop-opacity="0.03706691812188782"/><stop offset="1" stop-color="#f9ffdc" stop-opacity="0"/></linearGradient></defs><polygon points="8.3199,8.2595 10.7939,13.6573 10.1755,20.4725 7.5446,10.8543" fill="url(#text_sheen52)"/><defs><linearGradient id="text_sheen53" gradientUnits="userSpaceOnUse" x1="10.585273197309114" y1="13.75293575678888" x2="8.072704686166574" y2="14.90452965772921"><stop stop-color="#ffebe4" stop-opacity="0"/><stop offset=".3" stop-color="#ffe3d6" stop-opacity="0.0978453754172425"/><stop offset=".5" stop-color="#ffffff" stop-opacity="0.32615125139080836"/><stop offset=".7" stop-color="#f9ffdc" stop-opacity="0.08153781284770209"/><stop offset="1" stop-color="#f9ffdc" stop-opacity="0"/></linearGradient></defs><polygon points="6.1993,3.6328 13.2679,19.0552 9.4024,20.8269" fill="url(#text_sheen53)"/><polygon points="7.2596,5.9461 7.6130,6.7173 10.4847,20.3308 10.2914,20.4194" fill="#ffffff" fill-opacity="0.5059" stroke="none" stroke-width="0.7" stroke-linejoin="round" stroke-linecap="round"/><polyline points="6.0000,3.0000 13.4800,19.3200" fill="none" stroke="#fff5f4" stroke-opacity="0.5608" stroke-width="0.42" stroke-linejoin="round" stroke-linecap="round"/><polyline points="9.3215,10.4448 11.0179,14.1462" fill="none" stroke="#ffc39b" stroke-opacity="0.0000" stroke-width="0.8" stroke-linejoin="round" stroke-linecap="round"/><polyline points="9.3215,10.4448 11.0179,14.1462" fill="none" stroke="#ffffff" stroke-opacity="0.0000" stroke-width="0.29" stroke-linejoin="round" stroke-linecap="round"/><polygon points="17.0000,27.0000 13.4800,19.3200 9.3895,21.1948" fill="url(#text_clearIce)" stroke="none" stroke-width="0.7" stroke-linejoin="round" stroke-linecap="round"/><polygon points="17.0000,27.0000 13.4800,19.3200 9.3895,21.1948" fill="#917328" fill-opacity="0.5333" stroke="none" stroke-width="0" stroke-linejoin="round" stroke-linecap="round"/><polygon points="16.7959,26.7528 13.4695,19.4952 9.6041,21.2669" fill="#fff0ef" fill-opacity="0.0235" stroke="none" stroke-width="0.7" stroke-linejoin="round" stroke-linecap="round"/><defs><linearGradient id="text_sheen61" gradientUnits="userSpaceOnUse" x1="15.047529437192722" y1="22.926039583567963" x2="12.280718628278692" y2="22.196210704320226"><stop stop-color="#ffebe4" stop-opacity="0"/><stop offset=".3" stop-color="#ffe3d6" stop-opacity="0.035244475148916474"/><stop offset=".5" stop-color="#ffffff" stop-opacity="0.11748158382972158"/><stop offset=".7" stop-color="#f9ffdc" stop-opacity="0.029370395957430396"/><stop offset="1" stop-color="#f9ffdc" stop-opacity="0"/></linearGradient></defs><polygon points="15.7980,24.5755 14.6338,22.0353 10.3771,20.9125 13.7753,24.4487" fill="url(#text_sheen61)"/><defs><linearGradient id="text_sheen62" gradientUnits="userSpaceOnUse" x1="14.42518986397578" y1="22.13093575678888" x2="11.91262135283324" y2="23.28252965772921"><stop stop-color="#ffebe4" stop-opacity="0"/><stop offset=".3" stop-color="#ffe3d6" stop-opacity="0.021354842276422"/><stop offset=".5" stop-color="#ffffff" stop-opacity="0.07118280758807333"/><stop offset=".7" stop-color="#f9ffdc" stop-opacity="0.01779570189701833"/><stop offset="1" stop-color="#f9ffdc" stop-opacity="0"/></linearGradient></defs><polygon points="16.7959,26.7528 13.4695,19.4952 9.6041,21.2669" fill="url(#text_sheen62)"/><polyline points="17.0000,27.0000 13.4800,19.3200" fill="none" stroke="#fff5f4" stroke-opacity="0.3843" stroke-width="0.42" stroke-linejoin="round" stroke-linecap="round"/><polyline points="15.3267,23.5471 14.5283,21.8053" fill="none" stroke="#ffc39b" stroke-opacity="0.0000" stroke-width="0.8" stroke-linejoin="round" stroke-linecap="round"/><polyline points="15.3267,23.5471 14.5283,21.8053" fill="none" stroke="#ffffff" stroke-opacity="0.0000" stroke-width="0.29" stroke-linejoin="round" stroke-linecap="round"/><polyline points="6.0000,3.0000 19.2648,16.6686 17.0000,27.0000 7.6952,21.9714 6.0000,3.0000" fill="none" stroke="#796523" stroke-width="0.72" stroke-linejoin="round" stroke-linecap="round"/><polyline points="7.9565,21.6251 6.3630,3.7920 18.8319,16.6405" fill="none" stroke="#ffede7" stroke-width="0.38" stroke-linejoin="round" stroke-linecap="round"/><polyline points="18.8319,16.6405 16.7030,26.3520" fill="none" stroke="#faffc8" stroke-width="0.33" stroke-linejoin="round" stroke-linecap="round"/><polygon points="7.0355,5.6193 7.8434,7.3819 10.4437,20.0534 9.9283,20.2896" fill="#ffe4dc" fill-opacity="0.0000" stroke="none" stroke-width="0.7" stroke-linejoin="round" stroke-linecap="round"/><polygon points="7.3048,6.2068 7.5741,6.7943 10.2964,20.1209 10.0756,20.2221" fill="#ffffff" fill-opacity="0.0000" stroke="none" stroke-width="0.7" stroke-linejoin="round" stroke-linecap="round"/><polyline points="7.4394,6.5006 10.1860,20.1715" fill="none" stroke="#ffffff" stroke-opacity="0.0000" stroke-width="0.24" stroke-linejoin="round" stroke-linecap="round"/></g></svg>