<svg xmlns="http://www.w3.org/2000/svg" width="64" height="64" viewBox="0 0 64 64" role="img"><title>coffee editable paw master</title><g transform="" ><path d="M10 29 C4 24 8 14 16 14 C14 4 24 1 30 8 C34 0 44 4 45 13 C55 9 61 20 55 28 C63 37 59 49 51 53 L49 57 L45 56 C39 63 25 63 19 57 L15 58 L14 54 C4 49 2 38 10 29Z" fill="#FFF9F5" stroke="#A38A7E" stroke-width="1.5" stroke-linejoin="round" stroke-linecap="round" /><path d="M11 44 C17 54 24 57 33 57 C44 57 52 52 55 43 C54 53 46 61 32 60 C21 60 12 55 11 44Z" fill="#EEE0D7" stroke="none" stroke-width="1" stroke-linejoin="round" stroke-linecap="round" /><path d="M12 31 L16 33 M49 34 L53 31 M18 50 L21 48 M44 50 L47 52" fill="none" stroke="#DBCAC0" stroke-width="1.2" stroke-linejoin="round" stroke-linecap="round" /><ellipse cx="15" cy="26" rx="5" ry="6.4" fill="#9A6652" transform="rotate(-28 15 26)"/><ellipse cx="14" cy="24" rx="1.8" ry="2.3" fill="#C89278" opacity=".85"/><ellipse cx="26" cy="17" rx="5.3" ry="7" fill="#9A6652" transform="rotate(-10 26 17)"/><ellipse cx="25" cy="15" rx="1.8" ry="2.3" fill="#C89278" opacity=".85"/><ellipse cx="40" cy="17" rx="5.3" ry="7" fill="#9A6652" transform="rotate(12 40 17)"/><ellipse cx="39" cy="15" rx="1.8" ry="2.3" fill="#C89278" opacity=".85"/><ellipse cx="51" cy="27" rx="4.7" ry="6.2" fill="#9A6652" transform="rotate(28 51 27)"/><ellipse cx="50" cy="25" rx="1.8" ry="2.3" fill="#C89278" opacity=".85"/><path d="M21 39 C22 35 27 32 32 33 C37 29 45 34 46 39 C49 45 44 51 39 50 C34 49 33 52 28 52 C19 53 17 44 21 39Z" fill="#9A6652" stroke="none" stroke-width="1" stroke-linejoin="round" stroke-linecap="round" /><path d="M25 39 C27 36 31 36 33 37" fill="none" stroke="#C89278" stroke-width="2.2" stroke-linejoin="round" stroke-linecap="round" /></g></svg>
