<svg xmlns="http://www.w3.org/2000/svg" width="32" height="32" viewBox="0 0 32 32"><defs>
    <linearGradient id="body" x1="0" y1="0" x2="1" y2="1"><stop stop-color="#e9fff2"/><stop offset=".55" stop-color="#a1faca"/><stop offset="1" stop-color="#d8fffe"/></linearGradient>
    <linearGradient id="crown" x1="0" y1="0" x2=".8" y2="1"><stop stop-color="#b9ffe7"/><stop offset=".40" stop-color="#f9fffa"/><stop offset=".70" stop-color="#eafff1"/><stop offset="1" stop-color="#7df2ab"/></linearGradient>
    <linearGradient id="left" x1="0" y1="0" x2="1" y2=".5"><stop stop-color="#32a67d"/><stop offset=".32" stop-color="#4edc8e"/><stop offset=".78" stop-color="#bbffcd"/><stop offset="1" stop-color="#e9ffeb"/></linearGradient>
    <linearGradient id="right" x1="0" y1="0" x2=".7" y2="1"><stop stop-color="#72f0b7"/><stop offset=".36" stop-color="#54cba3"/><stop offset=".7" stop-color="#d4ffee"/><stop offset="1" stop-color="#edf6ff"/></linearGradient>
    <linearGradient id="foot" x1="0" y1="0" x2="1" y2="1"><stop stop-color="#b1ffc4"/><stop offset=".48" stop-color="#51d98d"/><stop offset=".52" stop-color="#d8ffe1"/><stop offset="1" stop-color="#b4eaee"/></linearGradient>
    <linearGradient id="violet" x1="0" y1="0" x2="1" y2="1"><stop stop-color="#cbffdb"/><stop offset=".5" stop-color="#8ee0e4"/><stop offset="1" stop-color="#d0f3ff"/></linearGradient>
    <linearGradient id="inner" x1="0" y1="0" x2="1" y2="0"><stop stop-color="#34a688" stop-opacity=".7"/><stop offset=".5" stop-color="#e0ffe8" stop-opacity=".25"/><stop offset="1" stop-color="#fbfffb" stop-opacity=".8"/></linearGradient>
    <linearGradient id="refract" x1="0" y1="0" x2="1" y2="1"><stop stop-color="#f3fff4"/><stop offset=".46" stop-color="#c2ffdd" stop-opacity=".7"/><stop offset="1" stop-color="#baecf4" stop-opacity=".4"/></linearGradient>
    <linearGradient id="text" x1="0" y1="0" x2="1" y2="0"><stop stop-color="#76e7b0"/><stop offset=".48" stop-color="#f4fff5"/><stop offset="1" stop-color="#a6fff0"/></linearGradient>
    <radialGradient id="shadow"><stop stop-color="#57dbb1" stop-opacity=".25"/><stop offset=".55" stop-color="#6ce2b4" stop-opacity=".10"/><stop offset="1" stop-color="#8dedcd" stop-opacity="0"/></radialGradient>
    <radialGradient id="halo"><stop stop-color="#befffb" stop-opacity=".10"/><stop offset=".6" stop-color="#a7ffce" stop-opacity=".07"/><stop offset="1" stop-color="#d4ffea" stop-opacity="0"/></radialGradient>
<linearGradient id="edgeIce" x1="0" y1="0" x2="1" y2="1"><stop offset="0.0" stop-color="#edfff4"/><stop offset="0.5" stop-color="#4ee2ac"/><stop offset="1.0" stop-color="#e9ffeb"/></linearGradient>
<linearGradient id="edgeIndigo" x1="0" y1="0" x2="1" y2="1"><stop offset="0.0" stop-color="#179b72"/><stop offset="0.5" stop-color="#83ffcd"/><stop offset="1.0" stop-color="#66c0c6"/></linearGradient>
<linearGradient id="edgeLilac" x1="0" y1="0" x2="1" y2="1"><stop offset="0.0" stop-color="#92e6e0"/><stop offset="0.5" stop-color="#f5f9ff"/><stop offset="1.0" stop-color="#47caa0"/></linearGradient>
<linearGradient id="edgeBlue" x1="0" y1="0" x2="1" y2="1"><stop offset="0.0" stop-color="#2d9476"/><stop offset="0.5" stop-color="#94ffb0"/><stop offset="1.0" stop-color="#31ca7a"/></linearGradient>
<linearGradient id="tableLight" x1="0" y1="0" x2="1" y2="1"><stop offset="0.0" stop-color="#d0ffe9"/><stop offset="0.5" stop-color="#ffffff"/><stop offset="1.0" stop-color="#acf7d2"/></linearGradient>
<linearGradient id="tableBlue" x1="0" y1="0" x2="1" y2="1"><stop offset="0.0" stop-color="#52d597"/><stop offset="0.5" stop-color="#deffe6"/><stop offset="1.0" stop-color="#83edb2"/></linearGradient>
<linearGradient id="tableIce" x1="0" y1="0" x2="1" y2="1"><stop offset="0.0" stop-color="#d8ffe0"/><stop offset="0.5" stop-color="#55ea88"/><stop offset="1.0" stop-color="#f1fff7"/></linearGradient>
<linearGradient id="tableLilac" x1="0" y1="0" x2="1" y2="1"><stop offset="0.0" stop-color="#71d9c8"/><stop offset="0.5" stop-color="#d8fffd"/><stop offset="1.0" stop-color="#f7f9ff"/></linearGradient>
<linearGradient id="reflectedBlue" x1="0" y1="0" x2="1" y2="1"><stop offset="0.0" stop-color="#e8ffea"/><stop offset="0.5" stop-color="#40cc7b"/><stop offset="1.0" stop-color="#bbffcd"/></linearGradient>
    </defs><ellipse cx="16" cy="28.5" rx="6.4" ry="1.8" fill="url(#shadow)" stroke="none" stroke-width="0" stroke-linejoin="round" stroke-linecap="round"/><ellipse cx="16" cy="20" rx="8" ry="10" fill="url(#halo)" stroke="none" stroke-width="0" stroke-linejoin="round" stroke-linecap="round"/><ellipse cx="16" cy="16" rx="12.2" ry="12.2" fill="none" stroke="#52ddaf" stroke-opacity="0.4392" stroke-width="0.55" stroke-linejoin="round" stroke-linecap="round"/><path d="M 4.6884 20.5702 A 12.2 12.2 0 0 1 3.8909 17.4868" fill="none" stroke="#237965" stroke-opacity="0.3922" stroke-width="1.55" stroke-linejoin="round" stroke-linecap="round"/><path d="M 4.6884 20.5702 A 12.2 12.2 0 0 1 3.8909 17.4868" fill="none" stroke="#9bffc6" stroke-opacity="0.3725" stroke-width="1.05" stroke-linejoin="round" stroke-linecap="round"/><path d="M 4.6884 20.5702 A 12.2 12.2 0 0 1 3.8909 17.4868" fill="none" stroke="#edfff4" stroke-opacity="0.1765" stroke-width="0.4" stroke-linejoin="round" stroke-linecap="round"/><path d="M 3.9187 17.6979 A 12.2 12.2 0 0 1 3.8909 14.5132" fill="none" stroke="#237965" stroke-opacity="0.4706" stroke-width="1.55" stroke-linejoin="round" stroke-linecap="round"/><path d="M 3.9187 17.6979 A 12.2 12.2 0 0 1 3.8909 14.5132" fill="none" stroke="#9bffc6" stroke-opacity="0.4588" stroke-width="1.05" stroke-linejoin="round" stroke-linecap="round"/><path d="M 3.9187 17.6979 A 12.2 12.2 0 0 1 3.8909 14.5132" fill="none" stroke="#edfff4" stroke-opacity="0.2863" stroke-width="0.4" stroke-linejoin="round" stroke-linecap="round"/><path d="M 3.8668 14.7248 A 12.2 12.2 0 0 1 4.6103 11.6279" fill="none" stroke="#237965" stroke-opacity="0.5490" stroke-width="1.55" stroke-linejoin="round" stroke-linecap="round"/><path d="M 3.8668 14.7248 A 12.2 12.2 0 0 1 4.6103 11.6279" fill="none" stroke="#9bffc6" stroke-opacity="0.5451" stroke-width="1.05" stroke-linejoin="round" stroke-linecap="round"/><path d="M 3.8668 14.7248 A 12.2 12.2 0 0 1 4.6103 11.6279" fill="none" stroke="#edfff4" stroke-opacity="0.3961" stroke-width="0.4" stroke-linejoin="round" stroke-linecap="round"/><path d="M 4.5358 11.8274 A 12.2 12.2 0 0 1 6.0063 9.0024" fill="none" stroke="#237965" stroke-opacity="0.6275" stroke-width="1.55" stroke-linejoin="round" stroke-linecap="round"/><path d="M 4.5358 11.8274 A 12.2 12.2 0 0 1 6.0063 9.0024" fill="none" stroke="#9bffc6" stroke-opacity="0.6314" stroke-width="1.05" stroke-linejoin="round" stroke-linecap="round"/><path d="M 4.5358 11.8274 A 12.2 12.2 0 0 1 6.0063 9.0024" fill="none" stroke="#edfff4" stroke-opacity="0.5059" stroke-width="0.4" stroke-linejoin="round" stroke-linecap="round"/><path d="M 5.8857 9.1778 A 12.2 12.2 0 0 1 7.9961 6.7925" fill="none" stroke="#237965" stroke-opacity="0.7059" stroke-width="1.55" stroke-linejoin="round" stroke-linecap="round"/><path d="M 5.8857 9.1778 A 12.2 12.2 0 0 1 7.9961 6.7925" fill="none" stroke="#9bffc6" stroke-opacity="0.7176" stroke-width="1.05" stroke-linejoin="round" stroke-linecap="round"/><path d="M 5.8857 9.1778 A 12.2 12.2 0 0 1 7.9961 6.7925" fill="none" stroke="#edfff4" stroke-opacity="0.6157" stroke-width="0.4" stroke-linejoin="round" stroke-linecap="round"/><path d="M 7.8366 6.9336 A 12.2 12.2 0 0 1 10.4613 5.1297" fill="none" stroke="#237965" stroke-opacity="0.7843" stroke-width="1.55" stroke-linejoin="round" stroke-linecap="round"/><path d="M 7.8366 6.9336 A 12.2 12.2 0 0 1 10.4613 5.1297" fill="none" stroke="#9bffc6" stroke-opacity="0.8039" stroke-width="1.05" stroke-linejoin="round" stroke-linecap="round"/><path d="M 7.8366 6.9336 A 12.2 12.2 0 0 1 10.4613 5.1297" fill="none" stroke="#edfff4" stroke-opacity="0.7255" stroke-width="0.4" stroke-linejoin="round" stroke-linecap="round"/><path d="M 10.2724 5.2280 A 12.2 12.2 0 0 1 13.2556 4.1127" fill="none" stroke="#237965" stroke-opacity="0.8627" stroke-width="1.55" stroke-linejoin="round" stroke-linecap="round"/><path d="M 10.2724 5.2280 A 12.2 12.2 0 0 1 13.2556 4.1127" fill="none" stroke="#9bffc6" stroke-opacity="0.8902" stroke-width="1.05" stroke-linejoin="round" stroke-linecap="round"/><path d="M 10.2724 5.2280 A 12.2 12.2 0 0 1 13.2556 4.1127" fill="none" stroke="#edfff4" stroke-opacity="0.8353" stroke-width="0.4" stroke-linejoin="round" stroke-linecap="round"/><path d="M 13.0486 4.1624 A 12.2 12.2 0 0 1 16.2129 3.8019" fill="none" stroke="#237965" stroke-opacity="0.9412" stroke-width="1.55" stroke-linejoin="round" stroke-linecap="round"/><path d="M 13.0486 4.1624 A 12.2 12.2 0 0 1 16.2129 3.8019" fill="none" stroke="#9bffc6" stroke-opacity="0.9765" stroke-width="1.05" stroke-linejoin="round" stroke-linecap="round"/><path d="M 13.0486 4.1624 A 12.2 12.2 0 0 1 16.2129 3.8019" fill="none" stroke="#edfff4" stroke-opacity="0.9451" stroke-width="0.4" stroke-linejoin="round" stroke-linecap="round"/><polygon points="16.0000,2.7500 17.0500,3.8000 16.0000,4.8500 14.9500,3.8000" fill="#edfff4" stroke="#337b65" stroke-width="0.45" stroke-linejoin="round" stroke-linecap="round"/><path d="M 27.3116 11.4298 A 12.2 12.2 0 0 1 28.1091 14.5132" fill="none" stroke="#237965" stroke-opacity="0.3922" stroke-width="1.55" stroke-linejoin="round" stroke-linecap="round"/><path d="M 27.3116 11.4298 A 12.2 12.2 0 0 1 28.1091 14.5132" fill="none" stroke="#9bffc6" stroke-opacity="0.3725" stroke-width="1.05" stroke-linejoin="round" stroke-linecap="round"/><path d="M 27.3116 11.4298 A 12.2 12.2 0 0 1 28.1091 14.5132" fill="none" stroke="#edfff4" stroke-opacity="0.1765" stroke-width="0.4" stroke-linejoin="round" stroke-linecap="round"/><path d="M 28.0813 14.3021 A 12.2 12.2 0 0 1 28.1091 17.4868" fill="none" stroke="#237965" stroke-opacity="0.4706" stroke-width="1.55" stroke-linejoin="round" stroke-linecap="round"/><path d="M 28.0813 14.3021 A 12.2 12.2 0 0 1 28.1091 17.4868" fill="none" stroke="#9bffc6" stroke-opacity="0.4588" stroke-width="1.05" stroke-linejoin="round" stroke-linecap="round"/><path d="M 28.0813 14.3021 A 12.2 12.2 0 0 1 28.1091 17.4868" fill="none" stroke="#edfff4" stroke-opacity="0.2863" stroke-width="0.4" stroke-linejoin="round" stroke-linecap="round"/><path d="M 28.1332 17.2752 A 12.2 12.2 0 0 1 27.3897 20.3721" fill="none" stroke="#237965" stroke-opacity="0.5490" stroke-width="1.55" stroke-linejoin="round" stroke-linecap="round"/><path d="M 28.1332 17.2752 A 12.2 12.2 0 0 1 27.3897 20.3721" fill="none" stroke="#9bffc6" stroke-opacity="0.5451" stroke-width="1.05" stroke-linejoin="round" stroke-linecap="round"/><path d="M 28.1332 17.2752 A 12.2 12.2 0 0 1 27.3897 20.3721" fill="none" stroke="#edfff4" stroke-opacity="0.3961" stroke-width="0.4" stroke-linejoin="round" stroke-linecap="round"/><path d="M 27.4642 20.1726 A 12.2 12.2 0 0 1 25.9937 22.9976" fill="none" stroke="#237965" stroke-opacity="0.6275" stroke-width="1.55" stroke-linejoin="round" stroke-linecap="round"/><path d="M 27.4642 20.1726 A 12.2 12.2 0 0 1 25.9937 22.9976" fill="none" stroke="#9bffc6" stroke-opacity="0.6314" stroke-width="1.05" stroke-linejoin="round" stroke-linecap="round"/><path d="M 27.4642 20.1726 A 12.2 12.2 0 0 1 25.9937 22.9976" fill="none" stroke="#edfff4" stroke-opacity="0.5059" stroke-width="0.4" stroke-linejoin="round" stroke-linecap="round"/><path d="M 26.1143 22.8222 A 12.2 12.2 0 0 1 24.0039 25.2075" fill="none" stroke="#237965" stroke-opacity="0.7059" stroke-width="1.55" stroke-linejoin="round" stroke-linecap="round"/><path d="M 26.1143 22.8222 A 12.2 12.2 0 0 1 24.0039 25.2075" fill="none" stroke="#9bffc6" stroke-opacity="0.7176" stroke-width="1.05" stroke-linejoin="round" stroke-linecap="round"/><path d="M 26.1143 22.8222 A 12.2 12.2 0 0 1 24.0039 25.2075" fill="none" stroke="#edfff4" stroke-opacity="0.6157" stroke-width="0.4" stroke-linejoin="round" stroke-linecap="round"/><path d="M 24.1634 25.0664 A 12.2 12.2 0 0 1 21.5387 26.8703" fill="none" stroke="#237965" stroke-opacity="0.7843" stroke-width="1.55" stroke-linejoin="round" stroke-linecap="round"/><path d="M 24.1634 25.0664 A 12.2 12.2 0 0 1 21.5387 26.8703" fill="none" stroke="#9bffc6" stroke-opacity="0.8039" stroke-width="1.05" stroke-linejoin="round" stroke-linecap="round"/><path d="M 24.1634 25.0664 A 12.2 12.2 0 0 1 21.5387 26.8703" fill="none" stroke="#edfff4" stroke-opacity="0.7255" stroke-width="0.4" stroke-linejoin="round" stroke-linecap="round"/><path d="M 21.7276 26.7720 A 12.2 12.2 0 0 1 18.7444 27.8873" fill="none" stroke="#237965" stroke-opacity="0.8627" stroke-width="1.55" stroke-linejoin="round" stroke-linecap="round"/><path d="M 21.7276 26.7720 A 12.2 12.2 0 0 1 18.7444 27.8873" fill="none" stroke="#9bffc6" stroke-opacity="0.8902" stroke-width="1.05" stroke-linejoin="round" stroke-linecap="round"/><path d="M 21.7276 26.7720 A 12.2 12.2 0 0 1 18.7444 27.8873" fill="none" stroke="#edfff4" stroke-opacity="0.8353" stroke-width="0.4" stroke-linejoin="round" stroke-linecap="round"/><path d="M 18.9514 27.8376 A 12.2 12.2 0 0 1 15.7871 28.1981" fill="none" stroke="#237965" stroke-opacity="0.9412" stroke-width="1.55" stroke-linejoin="round" stroke-linecap="round"/><path d="M 18.9514 27.8376 A 12.2 12.2 0 0 1 15.7871 28.1981" fill="none" stroke="#9bffc6" stroke-opacity="0.9765" stroke-width="1.05" stroke-linejoin="round" stroke-linecap="round"/><path d="M 18.9514 27.8376 A 12.2 12.2 0 0 1 15.7871 28.1981" fill="none" stroke="#edfff4" stroke-opacity="0.9451" stroke-width="0.4" stroke-linejoin="round" stroke-linecap="round"/><polygon points="16.0000,27.1500 17.0500,28.2000 16.0000,29.2500 14.9500,28.2000" fill="#edfff4" stroke="#337b65" stroke-width="0.45" stroke-linejoin="round" stroke-linecap="round"/><polygon points="16.0000,4.0000 22.0000,18.0000 16.0000,27.0000 10.0000,18.0000" fill="url(#body)" stroke="none" stroke-width="0.7" stroke-linejoin="round" stroke-linecap="round"/><polygon points="16.0000,4.0000 22.0000,18.0000 16.0000,18.0300" fill="url(#crown)" stroke="none" stroke-width="0.7" stroke-linejoin="round" stroke-linecap="round"/><polygon points="22.0000,18.0000 16.0000,27.0000 16.0000,18.0300" fill="url(#right)" stroke="none" stroke-width="0.7" stroke-linejoin="round" stroke-linecap="round"/><polygon points="16.0000,27.0000 10.0000,18.0000 16.0000,18.0300" fill="url(#foot)" stroke="none" stroke-width="0.7" stroke-linejoin="round" stroke-linecap="round"/><polygon points="10.0000,18.0000 16.0000,4.0000 16.0000,18.0300" fill="url(#left)" stroke="none" stroke-width="0.7" stroke-linejoin="round" stroke-linecap="round"/><polygon points="16.0000,4.0000 22.0000,18.0000 20.5600,17.8416 16.0000,6.2678" fill="url(#edgeIce)" stroke="none" stroke-width="0.7" stroke-linejoin="round" stroke-linecap="round"/><polygon points="22.0000,18.0000 16.0000,27.0000 16.0000,25.1646 20.5600,17.8416" fill="url(#edgeIndigo)" stroke="none" stroke-width="0.7" stroke-linejoin="round" stroke-linecap="round"/><polygon points="16.0000,27.0000 10.0000,18.0000 11.4400,17.8416 16.0000,25.1646" fill="url(#edgeLilac)" stroke="none" stroke-width="0.7" stroke-linejoin="round" stroke-linecap="round"/><polygon points="10.0000,18.0000 16.0000,4.0000 16.0000,6.2678 11.4400,17.8416" fill="url(#edgeBlue)" stroke="none" stroke-width="0.7" stroke-linejoin="round" stroke-linecap="round"/><polygon points="16.0000,6.2678 20.5600,17.8416 16.0000,18.0300" fill="url(#tableLight)" stroke="none" stroke-width="0.7" stroke-linejoin="round" stroke-linecap="round"/><polygon points="16.0000,6.2678 16.0000,18.0300 11.4400,17.8416" fill="url(#tableBlue)" stroke="none" stroke-width="0.7" stroke-linejoin="round" stroke-linecap="round"/><polygon points="11.4400,17.8416 16.0000,18.0300 16.0000,25.1646" fill="url(#tableIce)" stroke="none" stroke-width="0.7" stroke-linejoin="round" stroke-linecap="round"/><polygon points="20.5600,17.8416 16.0000,25.1646 16.0000,18.0300" fill="url(#tableLilac)" stroke="none" stroke-width="0.7" stroke-linejoin="round" stroke-linecap="round"/><polygon points="16.0000,6.2678 16.0000,12.9723 18.5536,12.7491" fill="#ffffff" fill-opacity="0.6902" stroke="none" stroke-width="0.7" stroke-linejoin="round" stroke-linecap="round"/><polygon points="16.0000,12.9723 18.2344,17.9377 16.0000,18.0300" fill="url(#reflectedBlue)" stroke="none" stroke-width="0.7" stroke-linejoin="round" stroke-linecap="round"/><polygon points="11.4400,17.8416 16.0000,12.9723 16.0000,18.0300" fill="#72ffa4" fill-opacity="0.5686" stroke="none" stroke-width="0.7" stroke-linejoin="round" stroke-linecap="round"/><polygon points="16.0000,18.0300 18.2344,17.9377 16.0000,21.9540" fill="#e6ffed" fill-opacity="0.8510" stroke="none" stroke-width="0.7" stroke-linejoin="round" stroke-linecap="round"/><polygon points="16.0000,25.1646 16.0000,21.9540 13.7200,21.5031" fill="#f4f6ff" fill-opacity="0.7294" stroke="none" stroke-width="0.7" stroke-linejoin="round" stroke-linecap="round"/><polygon points="14.0200,8.6200 11.0800,15.4800 11.4400,17.8416 16.0000,6.2678" fill="url(#edgeBlue)" stroke="none" stroke-width="0.7" stroke-linejoin="round" stroke-linecap="round"/><polyline points="16.0000,6.2678 16.0000,18.0300 16.0000,25.1646" fill="none" stroke="#f5fff6" stroke-width="0.34" stroke-linejoin="round" stroke-linecap="round"/><polyline points="11.4400,17.8416 16.0000,18.0300 20.5600,17.8416" fill="none" stroke="#f5fff6" stroke-width="0.3" stroke-linejoin="round" stroke-linecap="round"/><polyline points="16.0000,6.2678 20.5600,17.8416" fill="none" stroke="#ffffff" stroke-opacity="0.6902" stroke-width="0.23" stroke-linejoin="round" stroke-linecap="round"/><polyline points="20.5600,17.8416 16.0000,25.1646" fill="none" stroke="#84dfcf" stroke-opacity="0.6902" stroke-width="0.24" stroke-linejoin="round" stroke-linecap="round"/><defs><linearGradient id="sweep76" gradientUnits="userSpaceOnUse" x1="16.0" y1="-1.75" x2="16.0" y2="9.75"><stop stop-color="#fff" stop-opacity="0"/><stop offset=".3" stop-color="#deffe7" stop-opacity="0.0"/><stop offset=".5" stop-color="#fff" stop-opacity="0.0"/><stop offset=".7" stop-color="#e7fff3" stop-opacity="0.0"/><stop offset="1" stop-color="#fff" stop-opacity="0"/></linearGradient></defs><polygon points="16.0000,4.0000 22.0000,18.0000 16.0000,27.0000 10.0000,18.0000" fill="url(#sweep76)"/><polygon points="16.0000,4.0000 22.0000,18.0000 16.0000,18.0300" fill="#ffffff" fill-opacity="0.0000" stroke="none" stroke-width="0.7" stroke-linejoin="round" stroke-linecap="round"/><polyline points="16.0000,18.0300 22.0000,18.0000" fill="none" stroke="#ffffff" stroke-opacity="0.3922" stroke-width="0.48" stroke-linejoin="round" stroke-linecap="round"/><polyline points="16.0000,4.0000 22.0000,18.0000 16.0000,27.0000 10.0000,18.0000 16.0000,4.0000" fill="none" stroke="#237965" stroke-width="0.72" stroke-linejoin="round" stroke-linecap="round"/><polyline points="10.3900,17.9123 16.0000,4.8223 21.6100,17.9123" fill="none" stroke="#e7ffed" stroke-width="0.38" stroke-linejoin="round" stroke-linecap="round"/><polyline points="21.6100,17.9123 16.0000,26.3272" fill="none" stroke="#c8faff" stroke-width="0.33" stroke-linejoin="round" stroke-linecap="round"/></svg>