<svg xmlns="http://www.w3.org/2000/svg" width="112" height="96" viewBox="0 0 112 96" role="img"><title>Help · pink · two-layer composition reference</title><path d="M6 5 L6 43 Q6 45 8 43 L17 35 L25 51 Q26 53 28 52 L34 49 Q35 48 34 46 L26 31 L40 31 Q43 31 40 29Z" fill="#FFF9F5" stroke="#796056" stroke-width="2" stroke-linejoin="round" stroke-linecap="round" /><path d="M10 12 L10 34" fill="none" stroke="#FFFFFF" stroke-width="1.4" stroke-linejoin="round" stroke-linecap="round" /><g transform="translate(9 18) scale(.23)" ><ellipse cx="15" cy="23" rx="6" ry="8" fill="#F4A6AE" transform="rotate(-28 15 23)"/><ellipse cx="26" cy="14" rx="6" ry="8" fill="#F4A6AE" transform="rotate(-10 26 14)"/><ellipse cx="40" cy="14" rx="6" ry="8" fill="#F4A6AE" transform="rotate(12 40 14)"/><ellipse cx="51" cy="24" rx="5.5" ry="7.5" fill="#F4A6AE" transform="rotate(28 51 24)"/><path d="M20 39 C20 34 26 30 32 30 C39 30 45 35 46 40 C49 49 41 52 35 49 C31 47 28 51 23 49 C17 47 16 42 20 39Z" fill="#F4A6AE" stroke="none" stroke-width="1" stroke-linejoin="round" stroke-linecap="round" /></g><path d="M29 42 C36 40 39 46 35 49" fill="none" stroke="#796056" stroke-width="1.5" stroke-linejoin="round" stroke-linecap="round" /><path d="M43 15 C43 7 57 7 57 16 C57 21 50 21 50 27" fill="none" stroke="#796056" stroke-width="3.8" stroke-linejoin="round" stroke-linecap="round" /><ellipse cx="50" cy="33" rx="2" ry="2" fill="#796056" /><g transform="translate(62 41) rotate(0 21 21) scale(0.67)" ><g transform="" ><path d="M10 29 C4 24 8 14 16 14 C14 4 24 1 30 8 C34 0 44 4 45 13 C55 9 61 20 55 28 C63 37 59 49 51 53 L49 57 L45 56 C39 63 25 63 19 57 L15 58 L14 54 C4 49 2 38 10 29Z" fill="#FFF9F5" stroke="#A38A7E" stroke-width="1.5" stroke-linejoin="round" stroke-linecap="round" /><path d="M11 44 C17 54 24 57 33 57 C44 57 52 52 55 43 C54 53 46 61 32 60 C21 60 12 55 11 44Z" fill="#EEE0D7" stroke="none" stroke-width="1" stroke-linejoin="round" stroke-linecap="round" /><path d="M12 31 L16 33 M49 34 L53 31 M18 50 L21 48 M44 50 L47 52" fill="none" stroke="#DBCAC0" stroke-width="1.2" stroke-linejoin="round" stroke-linecap="round" /><ellipse cx="15" cy="26" rx="5" ry="6.4" fill="#F4A6AE" transform="rotate(-28 15 26)"/><ellipse cx="14" cy="24" rx="1.8" ry="2.3" fill="#FFD0D4" opacity=".85"/><ellipse cx="26" cy="17" rx="5.3" ry="7" fill="#F4A6AE" transform="rotate(-10 26 17)"/><ellipse cx="25" cy="15" rx="1.8" ry="2.3" fill="#FFD0D4" opacity=".85"/><ellipse cx="40" cy="17" rx="5.3" ry="7" fill="#F4A6AE" transform="rotate(12 40 17)"/><ellipse cx="39" cy="15" rx="1.8" ry="2.3" fill="#FFD0D4" opacity=".85"/><ellipse cx="51" cy="27" rx="4.7" ry="6.2" fill="#F4A6AE" transform="rotate(28 51 27)"/><ellipse cx="50" cy="25" rx="1.8" ry="2.3" fill="#FFD0D4" opacity=".85"/><path d="M21 39 C22 35 27 32 32 33 C37 29 45 34 46 39 C49 45 44 51 39 50 C34 49 33 52 28 52 C19 53 17 44 21 39Z" fill="#F4A6AE" stroke="none" stroke-width="1" stroke-linejoin="round" stroke-linecap="round" /><path d="M25 39 C27 36 31 36 33 37" fill="none" stroke="#FFD0D4" stroke-width="2.2" stroke-linejoin="round" stroke-linecap="round" /></g></g></svg>
