<svg xmlns="http://www.w3.org/2000/svg" width="32" height="32" viewBox="0 0 32 32"><defs>
    <linearGradient id="body" x1="0" y1="0" x2="1" y2="1"><stop stop-color="#e9f8ff"/><stop offset=".55" stop-color="#a1d8fa"/><stop offset="1" stop-color="#d8dcff"/></linearGradient>
    <linearGradient id="crown" x1="0" y1="0" x2=".8" y2="1"><stop stop-color="#b9d7ff"/><stop offset=".40" stop-color="#f9ffff"/><stop offset=".70" stop-color="#eafaff"/><stop offset="1" stop-color="#7dcef2"/></linearGradient>
    <linearGradient id="left" x1="0" y1="0" x2="1" y2=".5"><stop stop-color="#3265a6"/><stop offset=".32" stop-color="#4ea8dc"/><stop offset=".78" stop-color="#bbf3ff"/><stop offset="1" stop-color="#e9ffff"/></linearGradient>
    <linearGradient id="right" x1="0" y1="0" x2=".7" y2="1"><stop stop-color="#72b6f0"/><stop offset=".36" stop-color="#5486cb"/><stop offset=".7" stop-color="#d4e9ff"/><stop offset="1" stop-color="#f5edff"/></linearGradient>
    <linearGradient id="foot" x1="0" y1="0" x2="1" y2="1"><stop stop-color="#b1f3ff"/><stop offset=".48" stop-color="#51a8d9"/><stop offset=".52" stop-color="#d8f9ff"/><stop offset="1" stop-color="#b4b5ee"/></linearGradient>
    <linearGradient id="violet" x1="0" y1="0" x2="1" y2="1"><stop stop-color="#cbf3ff"/><stop offset=".5" stop-color="#8e91e4"/><stop offset="1" stop-color="#d8d0ff"/></linearGradient>
    <linearGradient id="inner" x1="0" y1="0" x2="1" y2="0"><stop stop-color="#345ca6" stop-opacity=".7"/><stop offset=".5" stop-color="#e0faff" stop-opacity=".25"/><stop offset="1" stop-color="#fbffff" stop-opacity=".8"/></linearGradient>
    <linearGradient id="refract" x1="0" y1="0" x2="1" y2="1"><stop stop-color="#f3ffff"/><stop offset=".46" stop-color="#c2e9ff" stop-opacity=".7"/><stop offset="1" stop-color="#bdbaf4" stop-opacity=".4"/></linearGradient>
    <linearGradient id="text" x1="0" y1="0" x2="1" y2="0"><stop stop-color="#76b6e7"/><stop offset=".48" stop-color="#f4ffff"/><stop offset="1" stop-color="#a6bcff"/></linearGradient>
    <radialGradient id="shadow"><stop stop-color="#578cdb" stop-opacity=".25"/><stop offset=".55" stop-color="#6ca4e2" stop-opacity=".10"/><stop offset="1" stop-color="#8db5ed" stop-opacity="0"/></radialGradient>
    <radialGradient id="halo"><stop stop-color="#bec7ff" stop-opacity=".10"/><stop offset=".6" stop-color="#a7dfff" stop-opacity=".07"/><stop offset="1" stop-color="#d4edff" stop-opacity="0"/></radialGradient>
<linearGradient id="edgeIce" x1="0" y1="0" x2="1" y2="1"><stop offset="0.0" stop-color="#edfaff"/><stop offset="0.5" stop-color="#4e90e2"/><stop offset="1.0" stop-color="#e9ffff"/></linearGradient>
<linearGradient id="edgeIndigo" x1="0" y1="0" x2="1" y2="1"><stop offset="0.0" stop-color="#174b9b"/><stop offset="0.5" stop-color="#83bfff"/><stop offset="1.0" stop-color="#6668c6"/></linearGradient>
<linearGradient id="edgeLilac" x1="0" y1="0" x2="1" y2="1"><stop offset="0.0" stop-color="#929fe6"/><stop offset="0.5" stop-color="#faf5ff"/><stop offset="1.0" stop-color="#477cca"/></linearGradient>
<linearGradient id="edgeBlue" x1="0" y1="0" x2="1" y2="1"><stop offset="0.0" stop-color="#2d5494"/><stop offset="0.5" stop-color="#94ecff"/><stop offset="1.0" stop-color="#318eca"/></linearGradient>
<linearGradient id="tableLight" x1="0" y1="0" x2="1" y2="1"><stop offset="0.0" stop-color="#d0eaff"/><stop offset="0.5" stop-color="#ffffff"/><stop offset="1.0" stop-color="#acd7f7"/></linearGradient>
<linearGradient id="tableBlue" x1="0" y1="0" x2="1" y2="1"><stop offset="0.0" stop-color="#529bd5"/><stop offset="0.5" stop-color="#defaff"/><stop offset="1.0" stop-color="#83c7ed"/></linearGradient>
<linearGradient id="tableIce" x1="0" y1="0" x2="1" y2="1"><stop offset="0.0" stop-color="#d8faff"/><stop offset="0.5" stop-color="#55c3ea"/><stop offset="1.0" stop-color="#f1faff"/></linearGradient>
<linearGradient id="tableLilac" x1="0" y1="0" x2="1" y2="1"><stop offset="0.0" stop-color="#718bd9"/><stop offset="0.5" stop-color="#d8ddff"/><stop offset="1.0" stop-color="#fcf7ff"/></linearGradient>
<linearGradient id="reflectedBlue" x1="0" y1="0" x2="1" y2="1"><stop offset="0.0" stop-color="#e8ffff"/><stop offset="0.5" stop-color="#409dcc"/><stop offset="1.0" stop-color="#bbf3ff"/></linearGradient>
    </defs><ellipse cx="13.5" cy="28.3" rx="6.7" ry="2.2" fill="url(#shadow)" stroke="none" stroke-width="0" stroke-linejoin="round" stroke-linecap="round"/><ellipse cx="14.5" cy="22" rx="7" ry="8" fill="url(#halo)" stroke="none" stroke-width="0" stroke-linejoin="round" stroke-linecap="round"/><polygon points="6.0000,3.0000 19.0000,16.8000 17.0000,27.0000 6.7000,19.8000" fill="url(#body)" stroke="none" stroke-width="0.7" stroke-linejoin="round" stroke-linecap="round"/><polygon points="6.0000,3.0000 19.0000,16.8000 12.7100,17.6400" fill="url(#crown)" stroke="none" stroke-width="0.7" stroke-linejoin="round" stroke-linecap="round"/><polygon points="19.0000,16.8000 17.0000,27.0000 12.7100,17.6400" fill="url(#right)" stroke="none" stroke-width="0.7" stroke-linejoin="round" stroke-linecap="round"/><polygon points="17.0000,27.0000 6.7000,19.8000 12.7100,17.6400" fill="url(#foot)" stroke="none" stroke-width="0.7" stroke-linejoin="round" stroke-linecap="round"/><polygon points="6.7000,19.8000 6.0000,3.0000 12.7100,17.6400" fill="url(#left)" stroke="none" stroke-width="0.7" stroke-linejoin="round" stroke-linecap="round"/><polygon points="6.0000,3.0000 19.0000,16.8000 17.4112,16.8288 7.0846,5.3664" fill="url(#edgeIce)" stroke="none" stroke-width="0.7" stroke-linejoin="round" stroke-linecap="round"/><polygon points="19.0000,16.8000 17.0000,27.0000 16.1222,25.0848 17.4112,16.8288" fill="url(#edgeIndigo)" stroke="none" stroke-width="0.7" stroke-linejoin="round" stroke-linecap="round"/><polygon points="17.0000,27.0000 6.7000,19.8000 8.0632,19.1088 16.1222,25.0848" fill="url(#edgeLilac)" stroke="none" stroke-width="0.7" stroke-linejoin="round" stroke-linecap="round"/><polygon points="6.7000,19.8000 6.0000,3.0000 7.0846,5.3664 8.0632,19.1088" fill="url(#edgeBlue)" stroke="none" stroke-width="0.7" stroke-linejoin="round" stroke-linecap="round"/><polygon points="7.0846,5.3664 17.4112,16.8288 12.7100,17.6400" fill="url(#tableLight)" stroke="none" stroke-width="0.7" stroke-linejoin="round" stroke-linecap="round"/><polygon points="7.0846,5.3664 12.7100,17.6400 8.0632,19.1088" fill="url(#tableBlue)" stroke="none" stroke-width="0.7" stroke-linejoin="round" stroke-linecap="round"/><polygon points="8.0632,19.1088 12.7100,17.6400 16.1222,25.0848" fill="url(#tableIce)" stroke="none" stroke-width="0.7" stroke-linejoin="round" stroke-linecap="round"/><polygon points="17.4112,16.8288 16.1222,25.0848 12.7100,17.6400" fill="url(#tableLilac)" stroke="none" stroke-width="0.7" stroke-linejoin="round" stroke-linecap="round"/><polygon points="7.0846,5.3664 10.2911,12.3624 12.8675,11.7853" fill="#ffffff" fill-opacity="0.6902" stroke="none" stroke-width="0.7" stroke-linejoin="round" stroke-linecap="round"/><polygon points="10.2911,12.3624 15.0136,17.2425 12.7100,17.6400" fill="url(#reflectedBlue)" stroke="none" stroke-width="0.7" stroke-linejoin="round" stroke-linecap="round"/><polygon points="8.0632,19.1088 10.2911,12.3624 12.7100,17.6400" fill="#72d9ff" fill-opacity="0.5686" stroke="none" stroke-width="0.7" stroke-linejoin="round" stroke-linecap="round"/><polygon points="12.7100,17.6400 15.0136,17.2425 14.5867,21.7346" fill="#e6faff" fill-opacity="0.8510" stroke="none" stroke-width="0.7" stroke-linejoin="round" stroke-linecap="round"/><polygon points="16.1222,25.0848 14.5867,21.7346 12.0927,22.0968" fill="#fcf4ff" fill-opacity="0.7294" stroke="none" stroke-width="0.7" stroke-linejoin="round" stroke-linecap="round"/><polygon points="6.2310,8.5440 6.5740,16.7760 8.0632,19.1088 7.0846,5.3664" fill="url(#edgeBlue)" stroke="none" stroke-width="0.7" stroke-linejoin="round" stroke-linecap="round"/><polyline points="7.0846,5.3664 12.7100,17.6400 16.1222,25.0848" fill="none" stroke="#f5ffff" stroke-width="0.34" stroke-linejoin="round" stroke-linecap="round"/><polyline points="8.0632,19.1088 12.7100,17.6400 17.4112,16.8288" fill="none" stroke="#f5ffff" stroke-width="0.3" stroke-linejoin="round" stroke-linecap="round"/><polyline points="7.0846,5.3664 17.4112,16.8288" fill="none" stroke="#ffffff" stroke-opacity="0.6902" stroke-width="0.23" stroke-linejoin="round" stroke-linecap="round"/><polyline points="17.4112,16.8288 16.1222,25.0848" fill="none" stroke="#849cdf" stroke-opacity="0.6902" stroke-width="0.24" stroke-linejoin="round" stroke-linecap="round"/><polyline points="6.0000,3.0000 19.0000,16.8000 17.0000,27.0000 6.7000,19.8000 6.0000,3.0000" fill="none" stroke="#233e79" stroke-width="0.72" stroke-linejoin="round" stroke-linecap="round"/><polyline points="7.0478,19.5660 6.3933,3.8580 18.5482,16.7610" fill="none" stroke="#e7fbff" stroke-width="0.38" stroke-linejoin="round" stroke-linecap="round"/><polyline points="18.5482,16.7610 16.6782,26.2980" fill="none" stroke="#c8c8ff" stroke-width="0.33" stroke-linejoin="round" stroke-linecap="round"/><path d="M 22 10 C 22 6.3 28.8 6.3 28.8 10 C 28.8 12.1 25.4 12.5 25.4 14.7" fill="none" stroke="#334f7b" stroke-width="1.12" stroke-linejoin="round" stroke-linecap="round"/><ellipse cx="25.4" cy="17.3" rx="0.68" ry="0.68" fill="#334f7b" stroke="none" stroke-width="0" stroke-linejoin="round" stroke-linecap="round"/></svg>