<svg xmlns="http://www.w3.org/2000/svg" width="32" height="32" viewBox="0 0 32 32"><defs>
    <linearGradient id="body" x1="0" y1="0" x2="1" y2="1"><stop stop-color="#e9f8ff"/><stop offset=".55" stop-color="#a1d8fa"/><stop offset="1" stop-color="#d8dcff"/></linearGradient>
    <linearGradient id="crown" x1="0" y1="0" x2=".8" y2="1"><stop stop-color="#b9d7ff"/><stop offset=".40" stop-color="#f9ffff"/><stop offset=".70" stop-color="#eafaff"/><stop offset="1" stop-color="#7dcef2"/></linearGradient>
    <linearGradient id="left" x1="0" y1="0" x2="1" y2=".5"><stop stop-color="#3265a6"/><stop offset=".32" stop-color="#4ea8dc"/><stop offset=".78" stop-color="#bbf3ff"/><stop offset="1" stop-color="#e9ffff"/></linearGradient>
    <linearGradient id="right" x1="0" y1="0" x2=".7" y2="1"><stop stop-color="#72b6f0"/><stop offset=".36" stop-color="#5486cb"/><stop offset=".7" stop-color="#d4e9ff"/><stop offset="1" stop-color="#f5edff"/></linearGradient>
    <linearGradient id="foot" x1="0" y1="0" x2="1" y2="1"><stop stop-color="#b1f3ff"/><stop offset=".48" stop-color="#51a8d9"/><stop offset=".52" stop-color="#d8f9ff"/><stop offset="1" stop-color="#b4b5ee"/></linearGradient>
    <linearGradient id="violet" x1="0" y1="0" x2="1" y2="1"><stop stop-color="#cbf3ff"/><stop offset=".5" stop-color="#8e91e4"/><stop offset="1" stop-color="#d8d0ff"/></linearGradient>
    <linearGradient id="inner" x1="0" y1="0" x2="1" y2="0"><stop stop-color="#345ca6" stop-opacity=".7"/><stop offset=".5" stop-color="#e0faff" stop-opacity=".25"/><stop offset="1" stop-color="#fbffff" stop-opacity=".8"/></linearGradient>
    <linearGradient id="refract" x1="0" y1="0" x2="1" y2="1"><stop stop-color="#f3ffff"/><stop offset=".46" stop-color="#c2e9ff" stop-opacity=".7"/><stop offset="1" stop-color="#bdbaf4" stop-opacity=".4"/></linearGradient>
    <linearGradient id="text" x1="0" y1="0" x2="1" y2="0"><stop stop-color="#76b6e7"/><stop offset=".48" stop-color="#f4ffff"/><stop offset="1" stop-color="#a6bcff"/></linearGradient>
    <radialGradient id="shadow"><stop stop-color="#578cdb" stop-opacity=".25"/><stop offset=".55" stop-color="#6ca4e2" stop-opacity=".10"/><stop offset="1" stop-color="#8db5ed" stop-opacity="0"/></radialGradient>
    <radialGradient id="halo"><stop stop-color="#bec7ff" stop-opacity=".10"/><stop offset=".6" stop-color="#a7dfff" stop-opacity=".07"/><stop offset="1" stop-color="#d4edff" stop-opacity="0"/></radialGradient>
<linearGradient id="edgeIce" x1="0" y1="0" x2="1" y2="1"><stop offset="0.0" stop-color="#edfaff"/><stop offset="0.5" stop-color="#4e90e2"/><stop offset="1.0" stop-color="#e9ffff"/></linearGradient>
<linearGradient id="edgeIndigo" x1="0" y1="0" x2="1" y2="1"><stop offset="0.0" stop-color="#174b9b"/><stop offset="0.5" stop-color="#83bfff"/><stop offset="1.0" stop-color="#6668c6"/></linearGradient>
<linearGradient id="edgeLilac" x1="0" y1="0" x2="1" y2="1"><stop offset="0.0" stop-color="#929fe6"/><stop offset="0.5" stop-color="#faf5ff"/><stop offset="1.0" stop-color="#477cca"/></linearGradient>
<linearGradient id="edgeBlue" x1="0" y1="0" x2="1" y2="1"><stop offset="0.0" stop-color="#2d5494"/><stop offset="0.5" stop-color="#94ecff"/><stop offset="1.0" stop-color="#318eca"/></linearGradient>
<linearGradient id="tableLight" x1="0" y1="0" x2="1" y2="1"><stop offset="0.0" stop-color="#d0eaff"/><stop offset="0.5" stop-color="#ffffff"/><stop offset="1.0" stop-color="#acd7f7"/></linearGradient>
<linearGradient id="tableBlue" x1="0" y1="0" x2="1" y2="1"><stop offset="0.0" stop-color="#529bd5"/><stop offset="0.5" stop-color="#defaff"/><stop offset="1.0" stop-color="#83c7ed"/></linearGradient>
<linearGradient id="tableIce" x1="0" y1="0" x2="1" y2="1"><stop offset="0.0" stop-color="#d8faff"/><stop offset="0.5" stop-color="#55c3ea"/><stop offset="1.0" stop-color="#f1faff"/></linearGradient>
<linearGradient id="tableLilac" x1="0" y1="0" x2="1" y2="1"><stop offset="0.0" stop-color="#718bd9"/><stop offset="0.5" stop-color="#d8ddff"/><stop offset="1.0" stop-color="#fcf7ff"/></linearGradient>
<linearGradient id="reflectedBlue" x1="0" y1="0" x2="1" y2="1"><stop offset="0.0" stop-color="#e8ffff"/><stop offset="0.5" stop-color="#409dcc"/><stop offset="1.0" stop-color="#bbf3ff"/></linearGradient>
    </defs><ellipse cx="8" cy="15.973503221923727" rx="2.9951216702495858" ry="4.571501496696736" fill="#9bdcff" fill-opacity="0.0745" stroke="none" stroke-width="0" stroke-linejoin="round" stroke-linecap="round"/><polygon points="8.0000,11.8749 10.2069,15.9735 8.0000,20.0721 5.7931,15.9735" fill="url(#body)" stroke="none" stroke-width="0.7" stroke-linejoin="round" stroke-linecap="round"/><polygon points="8.0000,11.8749 10.2069,15.9735 8.0000,16.5473" fill="url(#crown)" stroke="none" stroke-width="0.7" stroke-linejoin="round" stroke-linecap="round"/><polygon points="10.2069,15.9735 8.0000,20.0721 8.0000,16.5473" fill="url(#right)" stroke="none" stroke-width="0.7" stroke-linejoin="round" stroke-linecap="round"/><polygon points="8.0000,20.0721 5.7931,15.9735 8.0000,16.5473" fill="url(#foot)" stroke="none" stroke-width="0.7" stroke-linejoin="round" stroke-linecap="round"/><polygon points="5.7931,15.9735 8.0000,11.8749 8.0000,16.5473" fill="url(#left)" stroke="none" stroke-width="0.7" stroke-linejoin="round" stroke-linecap="round"/><polygon points="8.0000,11.8749 10.2069,15.9735 9.6773,16.1309 8.0000,12.6832" fill="url(#edgeIce)" stroke="none" stroke-width="0.7" stroke-linejoin="round" stroke-linecap="round"/><polygon points="10.2069,15.9735 8.0000,20.0721 8.0000,19.4180 9.6773,16.1309" fill="url(#edgeIndigo)" stroke="none" stroke-width="0.7" stroke-linejoin="round" stroke-linecap="round"/><polygon points="8.0000,20.0721 5.7931,15.9735 6.3227,16.1309 8.0000,19.4180" fill="url(#edgeLilac)" stroke="none" stroke-width="0.7" stroke-linejoin="round" stroke-linecap="round"/><polygon points="5.7931,15.9735 8.0000,11.8749 8.0000,12.6832 6.3227,16.1309" fill="url(#edgeBlue)" stroke="none" stroke-width="0.7" stroke-linejoin="round" stroke-linecap="round"/><polygon points="8.0000,12.6832 9.6773,16.1309 8.0000,16.5473" fill="url(#tableLight)" stroke="none" stroke-width="0.7" stroke-linejoin="round" stroke-linecap="round"/><polygon points="8.0000,12.6832 8.0000,16.5473 6.3227,16.1309" fill="url(#tableBlue)" stroke="none" stroke-width="0.7" stroke-linejoin="round" stroke-linecap="round"/><polygon points="6.3227,16.1309 8.0000,16.5473 8.0000,19.4180" fill="url(#tableIce)" stroke="none" stroke-width="0.7" stroke-linejoin="round" stroke-linecap="round"/><polygon points="9.6773,16.1309 8.0000,19.4180 8.0000,16.5473" fill="url(#tableLilac)" stroke="none" stroke-width="0.7" stroke-linejoin="round" stroke-linecap="round"/><polyline points="8.0000,12.6832 8.0000,16.5473 8.0000,19.4180" fill="none" stroke="#efffff" stroke-width="0.28" stroke-linejoin="round" stroke-linecap="round"/><polyline points="6.3227,16.1309 8.0000,16.5473 9.6773,16.1309" fill="none" stroke="#e3fbff" stroke-width="0.24" stroke-linejoin="round" stroke-linecap="round"/><polyline points="8.0000,11.8749 10.2069,15.9735 8.0000,20.0721 5.7931,15.9735 8.0000,11.8749" fill="none" stroke="#233e79" stroke-width="0.65" stroke-linejoin="round" stroke-linecap="round"/><polyline points="6.0358,16.0186 8.0000,12.3708 9.9642,16.0186" fill="none" stroke="#e7fbff" stroke-width="0.26" stroke-linejoin="round" stroke-linecap="round"/><polyline points="9.9642,16.0186 8.0000,19.6663" fill="none" stroke="#c8c8ff" stroke-width="0.23" stroke-linejoin="round" stroke-linecap="round"/><polygon points="8.0000,12.7419 9.3399,15.9735 8.0000,16.7617 6.6601,15.9735" fill="#ffffff" fill-opacity="0.1020" stroke="none" stroke-width="0.7" stroke-linejoin="round" stroke-linecap="round"/><ellipse cx="16" cy="16.0" rx="2.964" ry="4.524" fill="#9bdcff" fill-opacity="0.0706" stroke="none" stroke-width="0" stroke-linejoin="round" stroke-linecap="round"/><polygon points="16.0000,11.9440 18.1840,16.0000 16.0000,20.0560 13.8160,16.0000" fill="url(#body)" stroke="none" stroke-width="0.7" stroke-linejoin="round" stroke-linecap="round"/><polygon points="16.0000,11.9440 18.1840,16.0000 16.0000,16.5678" fill="url(#crown)" stroke="none" stroke-width="0.7" stroke-linejoin="round" stroke-linecap="round"/><polygon points="18.1840,16.0000 16.0000,20.0560 16.0000,16.5678" fill="url(#right)" stroke="none" stroke-width="0.7" stroke-linejoin="round" stroke-linecap="round"/><polygon points="16.0000,20.0560 13.8160,16.0000 16.0000,16.5678" fill="url(#foot)" stroke="none" stroke-width="0.7" stroke-linejoin="round" stroke-linecap="round"/><polygon points="13.8160,16.0000 16.0000,11.9440 16.0000,16.5678" fill="url(#left)" stroke="none" stroke-width="0.7" stroke-linejoin="round" stroke-linecap="round"/><polygon points="16.0000,11.9440 18.1840,16.0000 17.6598,16.1558 16.0000,12.7438" fill="url(#edgeIce)" stroke="none" stroke-width="0.7" stroke-linejoin="round" stroke-linecap="round"/><polygon points="18.1840,16.0000 16.0000,20.0560 16.0000,19.4087 17.6598,16.1558" fill="url(#edgeIndigo)" stroke="none" stroke-width="0.7" stroke-linejoin="round" stroke-linecap="round"/><polygon points="16.0000,20.0560 13.8160,16.0000 14.3402,16.1558 16.0000,19.4087" fill="url(#edgeLilac)" stroke="none" stroke-width="0.7" stroke-linejoin="round" stroke-linecap="round"/><polygon points="13.8160,16.0000 16.0000,11.9440 16.0000,12.7438 14.3402,16.1558" fill="url(#edgeBlue)" stroke="none" stroke-width="0.7" stroke-linejoin="round" stroke-linecap="round"/><polygon points="16.0000,12.7438 17.6598,16.1558 16.0000,16.5678" fill="url(#tableLight)" stroke="none" stroke-width="0.7" stroke-linejoin="round" stroke-linecap="round"/><polygon points="16.0000,12.7438 16.0000,16.5678 14.3402,16.1558" fill="url(#tableBlue)" stroke="none" stroke-width="0.7" stroke-linejoin="round" stroke-linecap="round"/><polygon points="14.3402,16.1558 16.0000,16.5678 16.0000,19.4087" fill="url(#tableIce)" stroke="none" stroke-width="0.7" stroke-linejoin="round" stroke-linecap="round"/><polygon points="17.6598,16.1558 16.0000,19.4087 16.0000,16.5678" fill="url(#tableLilac)" stroke="none" stroke-width="0.7" stroke-linejoin="round" stroke-linecap="round"/><polyline points="16.0000,12.7438 16.0000,16.5678 16.0000,19.4087" fill="none" stroke="#efffff" stroke-width="0.28" stroke-linejoin="round" stroke-linecap="round"/><polyline points="14.3402,16.1558 16.0000,16.5678 17.6598,16.1558" fill="none" stroke="#e3fbff" stroke-width="0.24" stroke-linejoin="round" stroke-linecap="round"/><polyline points="16.0000,11.9440 18.1840,16.0000 16.0000,20.0560 13.8160,16.0000 16.0000,11.9440" fill="none" stroke="#233e79" stroke-width="0.65" stroke-linejoin="round" stroke-linecap="round"/><polyline points="14.0562,16.0446 16.0000,12.4348 17.9438,16.0446" fill="none" stroke="#e7fbff" stroke-width="0.26" stroke-linejoin="round" stroke-linecap="round"/><polyline points="17.9438,16.0446 16.0000,19.6545" fill="none" stroke="#c8c8ff" stroke-width="0.23" stroke-linejoin="round" stroke-linecap="round"/><polygon points="16.0000,12.8020 17.3260,16.0000 16.0000,16.7800 14.6740,16.0000" fill="#ffffff" fill-opacity="0.0863" stroke="none" stroke-width="0.7" stroke-linejoin="round" stroke-linecap="round"/><ellipse cx="24" cy="16.0" rx="2.964" ry="4.524" fill="#9bdcff" fill-opacity="0.0706" stroke="none" stroke-width="0" stroke-linejoin="round" stroke-linecap="round"/><polygon points="24.0000,11.9440 26.1840,16.0000 24.0000,20.0560 21.8160,16.0000" fill="url(#body)" stroke="none" stroke-width="0.7" stroke-linejoin="round" stroke-linecap="round"/><polygon points="24.0000,11.9440 26.1840,16.0000 24.0000,16.5678" fill="url(#crown)" stroke="none" stroke-width="0.7" stroke-linejoin="round" stroke-linecap="round"/><polygon points="26.1840,16.0000 24.0000,20.0560 24.0000,16.5678" fill="url(#right)" stroke="none" stroke-width="0.7" stroke-linejoin="round" stroke-linecap="round"/><polygon points="24.0000,20.0560 21.8160,16.0000 24.0000,16.5678" fill="url(#foot)" stroke="none" stroke-width="0.7" stroke-linejoin="round" stroke-linecap="round"/><polygon points="21.8160,16.0000 24.0000,11.9440 24.0000,16.5678" fill="url(#left)" stroke="none" stroke-width="0.7" stroke-linejoin="round" stroke-linecap="round"/><polygon points="24.0000,11.9440 26.1840,16.0000 25.6598,16.1558 24.0000,12.7438" fill="url(#edgeIce)" stroke="none" stroke-width="0.7" stroke-linejoin="round" stroke-linecap="round"/><polygon points="26.1840,16.0000 24.0000,20.0560 24.0000,19.4087 25.6598,16.1558" fill="url(#edgeIndigo)" stroke="none" stroke-width="0.7" stroke-linejoin="round" stroke-linecap="round"/><polygon points="24.0000,20.0560 21.8160,16.0000 22.3402,16.1558 24.0000,19.4087" fill="url(#edgeLilac)" stroke="none" stroke-width="0.7" stroke-linejoin="round" stroke-linecap="round"/><polygon points="21.8160,16.0000 24.0000,11.9440 24.0000,12.7438 22.3402,16.1558" fill="url(#edgeBlue)" stroke="none" stroke-width="0.7" stroke-linejoin="round" stroke-linecap="round"/><polygon points="24.0000,12.7438 25.6598,16.1558 24.0000,16.5678" fill="url(#tableLight)" stroke="none" stroke-width="0.7" stroke-linejoin="round" stroke-linecap="round"/><polygon points="24.0000,12.7438 24.0000,16.5678 22.3402,16.1558" fill="url(#tableBlue)" stroke="none" stroke-width="0.7" stroke-linejoin="round" stroke-linecap="round"/><polygon points="22.3402,16.1558 24.0000,16.5678 24.0000,19.4087" fill="url(#tableIce)" stroke="none" stroke-width="0.7" stroke-linejoin="round" stroke-linecap="round"/><polygon points="25.6598,16.1558 24.0000,19.4087 24.0000,16.5678" fill="url(#tableLilac)" stroke="none" stroke-width="0.7" stroke-linejoin="round" stroke-linecap="round"/><polyline points="24.0000,12.7438 24.0000,16.5678 24.0000,19.4087" fill="none" stroke="#efffff" stroke-width="0.28" stroke-linejoin="round" stroke-linecap="round"/><polyline points="22.3402,16.1558 24.0000,16.5678 25.6598,16.1558" fill="none" stroke="#e3fbff" stroke-width="0.24" stroke-linejoin="round" stroke-linecap="round"/><polyline points="24.0000,11.9440 26.1840,16.0000 24.0000,20.0560 21.8160,16.0000 24.0000,11.9440" fill="none" stroke="#233e79" stroke-width="0.65" stroke-linejoin="round" stroke-linecap="round"/><polyline points="22.0562,16.0446 24.0000,12.4348 25.9438,16.0446" fill="none" stroke="#e7fbff" stroke-width="0.26" stroke-linejoin="round" stroke-linecap="round"/><polyline points="25.9438,16.0446 24.0000,19.6545" fill="none" stroke="#c8c8ff" stroke-width="0.23" stroke-linejoin="round" stroke-linecap="round"/><polygon points="24.0000,12.8020 25.3260,16.0000 24.0000,16.7800 22.6740,16.0000" fill="#ffffff" fill-opacity="0.0863" stroke="none" stroke-width="0.7" stroke-linejoin="round" stroke-linecap="round"/></svg>