<svg xmlns="http://www.w3.org/2000/svg" width="32" height="32" viewBox="0 0 64 64" role="img"><title>pink paw 32px</title><ns0:g xmlns:ns0="http://www.w3.org/2000/svg" transform="translate(32 32) scale(.137) translate(-270 -737)"><ns0:path d="M0 0 C-0.33 1.32 -0.66 2.64 -1 4 C-0.18 3.67 -0.18 3.67 4 2 C6.39 1.74 8.79 1.56 11.19 1.44 C17.8 1.1 17.8 1.1 20 0 C23.33 -0.04 26.67 -0.04 30 0 C28.68 1.32 27.36 2.64 26 4 C27.51 3.67 29.01 3.34 30.56 3 C42.47 0.92 51.89 1.13 62.88 6.49 C65.88 7.94 68.83 8.99 72 10 C72.33 10.16 72.33 10.16 74 11 C74 12.98 74 14.96 74 17 C74.66 17 75.32 17 76 17 C76 17.66 76 18.32 76 19 C76.95 19.14 77.9 19.29 78.88 19.44 C82 20 82 20 84 21 C84 21.66 84 22.32 84 23 C82.02 23 80.04 23 78 23 C78 23.66 78 24.32 78 25 C79.32 25.33 80.64 25.66 82 26 C87.38 28.43 91.54 31.17 96 35 C96.99 35.33 97.98 35.66 99 36 C99.66 37.65 100.32 39.3 101 41 C101.99 42.32 102.98 43.64 104 45 C104 45.99 104 46.98 104 48 C105.28 47.53 106.56 47.05 107.88 46.56 C113 45 117.67 44.38 123 44 C123.33 45.32 123.66 46.64 124 48 C125.44 48.27 126.89 48.54 128.38 48.81 C133.7 49.94 138.81 51.37 144 53 C144 56 144 56 143 58 C144.65 58.33 146.3 58.66 148 59 C151.93 60.96 154.1 62.77 157 66 C157 66.66 157 67.32 157 68 C154.03 68.33 151.06 68.66 148 69 C150.39 70.77 152.79 72.54 155.19 74.31 C156.52 75.3 157.86 76.28 159.23 77.3 C163 80 163 80 168 83 C174.97 88.47 178.65 93.22 181.06 101.75 C182 105 182 105 185 109 C185.36 112 185.69 115 186 118 C186.97 121.01 187.98 124.01 189 127 C190.4 132.32 191.7 137.66 193 143 C193.33 144.32 193.66 145.64 194 147 C194.07 150.08 194.08 153.17 194.06 156.25 C194.05 157.88 194.04 159.52 194.04 161.2 C194.03 161.83 194.03 161.83 194 165 C194.92 165.12 195.84 165.25 196.79 165.38 C200.62 166.12 202.92 167.65 206 170 C206 170.33 206 170.66 206 171 C204.02 171 202.04 171 200 171 C200 171.66 200 172.32 200 173 C201.32 173.66 202.64 174.32 204 175 C209.28 178.89 214.72 183.01 219 188 C219 188.99 219 189.98 219 191 C217.68 191 216.36 191 215 191 C218.1 196.76 222.62 200.07 227.73 203.95 C228.48 204.63 229.23 205.3 230 206 C230 206.99 230 207.98 230 209 C228.68 208.34 227.36 207.68 226 207 C224.68 206.67 223.36 206.34 222 206 C224.04 208.65 226.07 211.07 228.5 213.38 C233.84 218.99 236.24 225.87 239 233 C239.29 233.63 239.29 233.63 240.75 236.81 C242 240 242 240 242 245 C241.01 245 240.02 245 239 245 C239.5 246.53 239.99 248.05 240.5 249.62 C242.34 256.35 242.7 263.06 242 270 C241.34 270.99 240.68 271.98 240 273 C239.53 271.23 239.05 269.45 238.56 267.62 C237 262 237 262 236 260 C235 264 235 264 237 269 C239.62 281.65 238.7 295.83 232 307 C231.67 307 231.34 307 231 307 C230.67 300.4 230.34 293.8 230 287 C229.73 289.45 229.46 291.91 229.19 294.44 C228.4 300.65 227.32 306.15 225 312 C224.64 312.95 224.28 313.91 223.91 314.89 C220.33 324.01 215.45 331.6 209 339 C208.67 338.34 208.34 337.68 208 337 C209.32 334.66 210.65 332.33 212 330 C212 329.01 212 328.02 212 327 C211.5 327.72 211.01 328.45 210.5 329.2 C206.47 334.93 202.6 339.68 197 344 C198.11 343.34 199.23 342.68 200.38 342 C204 340 204 340 206 340 C203.66 344.68 200.75 347.38 197 351 C196.24 351.87 195.47 352.73 194.69 353.62 C188.21 359.35 180.17 361.71 172 364 C170.35 364.66 168.7 365.32 167 366 C165.35 366 163.7 366 162 366 C162 366.66 162 367.32 162 368 C162.66 368 163.32 368 164 368 C164 368.66 164 369.32 164 370 C167.63 370 171.26 370 175 370 C165.59 379.41 149.6 386.19 136.25 386.25 C134.52 386.17 132.79 386.09 131 386 C131 386.66 131 387.32 131 388 C128.69 388 126.38 388 124 388 C124 388.66 124 389.32 124 390 C128.95 389.67 133.9 389.34 139 389 C128.28 399.72 105.92 398.62 92 399 C93.97 400.97 97.35 400.66 100 401 C100 401.66 100 402.32 100 403 C89.49 405.1 78.61 404.05 68 403 C71 405 71 405 76 407 C76 407.33 76 407.66 76 408 C58.23 408.28 42.47 408.45 26 401 C25.01 401 24.02 401 23 401 C23.82 401.5 23.82 401.5 28 404 C28.99 405.32 29.98 406.64 31 408 C17.28 405.58 6.24 401.6 -4.69 392.84 C-7 391 -7 391 -9 390 C-8.01 391.65 -7.02 393.3 -6 395 C-6 395.99 -6 396.98 -6 398 C-13.25 396.19 -18.54 392.94 -23 387 C-24.32 386.67 -25.64 386.34 -27 386 C-30 381 -30 381 -30 379 C-30.66 379 -31.32 379 -32 379 C-31.55 379.89 -31.09 380.77 -30.62 381.69 C-29.29 384.4 -28.12 387.19 -27 390 C-31.12 388.97 -32.86 387.85 -36.12 385.25 C-36.99 384.57 -37.86 383.9 -38.76 383.2 C-41 381 -41 381 -43 376 C-43.66 375.67 -44.32 375.34 -45 375 C-45 376.32 -45 377.64 -45 379 C-51.24 377.75 -51.55 376.08 -55 371 C-55.89 370.3 -56.77 369.6 -57.69 368.88 C-60 367 -60 367 -62 362 C-63.32 362 -64.64 362 -66 362 C-66.98 359.3 -67.95 356.6 -68.93 353.89 C-71.76 346.24 -71.76 346.24 -74 344 C-74 346.64 -74 349.28 -74 352 C-74.66 352 -75.32 352 -76 352 C-80.19 343.49 -80.45 336.4 -80 327 C-82 328 -82 328 -83.12 331.06 C-83.41 332.03 -83.7 333 -84 334 C-84.33 334 -84.66 334 -85 334 C-85.05 331.96 -85.09 329.92 -85.12 327.88 C-85.15 326.74 -85.17 325.6 -85.2 324.43 C-85 320.94 -84.25 318.24 -83 315 C-83.92 315.02 -83.92 315.02 -88.56 315.12 C-93.39 315.13 -97.44 314.72 -102 313 C-102.33 312.67 -102.66 312.34 -103 312 C-103 310.35 -103 308.7 -103 307 C-104.32 307 -105.64 307 -107 307 C-107.33 307.66 -107.66 308.32 -108 309 C-123.18 305.96 -136.6 289.18 -145 277 C-145.7 275.91 -146.41 274.82 -147.13 273.7 C-149 271 -149 271 -151 270 C-153.06 263.83 -151.83 256.64 -151.64 250.2 C-152.01 244.86 -152.38 243.62 -156 240 C-156.33 239.17 -156.33 239.17 -158 235 C-158.66 234.67 -159.32 234.34 -160 234 C-161.1 230.96 -161.99 227.88 -162.9 224.79 C-164 222 -164 222 -167 220 C-168.84 210.82 -168.67 201.34 -169 192 C-169.07 190.66 -169.13 189.33 -169.2 187.95 C-169.45 180.7 -168.01 175.56 -165 169 C-164.67 167.35 -164.34 165.7 -164 164 C-164.66 164 -165.32 164 -166 164 C-164.85 158.27 -162.99 156.15 -159 152 C-158.34 152 -157.68 152 -157 152 C-157 150.02 -157 148.04 -157 146 C-154.88 143.44 -154.88 143.44 -152 141 C-150.95 140.09 -149.9 139.18 -148.81 138.25 C-144.37 134.69 -144.33 135 -138 135 C-138.33 133.35 -138.66 131.7 -139 130 C-139.66 129.67 -140.32 129.34 -141 129 C-140.91 126.58 -140.8 124.17 -140.69 121.75 C-140.63 120.4 -140.57 119.06 -140.51 117.67 C-140 114 -140 114 -137 110 C-136.34 108.35 -135.68 106.7 -135 105 C-133.68 103.32 -132.35 101.65 -131 100 C-130.84 99.5 -130.84 99.5 -130 97 C-131.65 97.99 -133.3 98.98 -135 100 C-135.66 100 -136.32 100 -137 100 C-136 96 -136 96 -133 92 C-132.69 91.03 -132.37 90.07 -132.05 89.07 C-130.9 85.7 -129.44 83.62 -127.19 80.88 C-126.85 80.46 -126.85 80.46 -125.17 78.37 C-123 76 -123 76 -120.29 73.94 C-118 72 -118 72 -117.19 68.06 C-116 64 -116 64 -112 61 C-108 59 -108 59 -106 59 C-106.16 58.34 -106.16 58.34 -107 55 C-103.3 52.15 -100.15 50.06 -95.75 48.44 C-92 47 -92 47 -89 43 C-85.81 41.75 -85.81 41.75 -83 41 C-83.33 40.34 -83.33 40.34 -85 37 C-80 38 -80 38 -78 40 C-74.01 41.02 -70.54 40.98 -66.38 40.94 C-61 41 -61 41 -57 43 C-56.67 41.35 -56.34 39.7 -56 38 C-53.03 28.48 -47.34 21.64 -40 15 C-39.01 15 -38.02 15 -37 15 C-37.33 16.98 -37.66 18.96 -38 21 C-37.34 21 -36.68 21 -36 21 C-35.67 20.17 -35.67 20.17 -34 16 C-28.5 9.95 -24.33 5.48 -16.06 4.56 C-9.82 3.7 -6.44 0 0 0 Z " fill="#FAEEE6" transform="translate(234,533)" />
<ns0:path d="M0 0 C7.29 4.32 13.92 6.03 22.18 7.63 C33.72 10.19 42.02 16.4 49.38 25.56 C55.07 34.75 56.96 42.65 56.38 53.56 C53.18 64.75 46.88 75.14 36.61 81.19 C26.86 86.18 17.09 89.83 6.38 92.14 C-3.67 95.7 -10.77 102.28 -17.94 109.94 C-30.31 122.67 -44.42 133.64 -62.94 134 C-75.03 133.47 -85.55 130.31 -94 121.31 C-103.53 108.83 -106.05 96.97 -104.62 81.56 C-102.47 73.32 -98.77 65.83 -95.06 58.19 C-92.44 52.74 -90.68 47.48 -89.19 41.62 C-84.23 22.94 -75.11 8.92 -58.3 -1.04 C-39.88 -10.68 -17.78 -10.61 0 0 Z " fill="#FDB2B0" transform="translate(303.625,698.4375)" />
<ns0:path d="M0 0 C10.06 8.77 18.13 18.8 19.88 32.38 C20.67 45.02 20.18 56.12 11.88 66.38 C5.62 72.63 -1.28 75.07 -10 76 C-18.89 75.7 -26.56 71.14 -33.12 65.38 C-42.69 52.22 -47.39 39.64 -46.12 23.38 C-43.55 11.51 -38.32 3.08 -28.12 -3.62 C-18.25 -7.54 -8.88 -5.65 0 0 Z " fill="#FDAEAC" transform="translate(282.125,586.625)" />
<ns0:path d="M0 0 C13.91 7.56 22.1 18.47 27.71 32.88 C30.79 43.88 28.33 54.98 22.88 64.75 C17.42 71.65 10.79 75.33 2.08 76.34 C-7.07 76.58 -12.98 75.28 -20.44 69.94 C-21.65 69.07 -22.87 68.21 -24.12 67.31 C-33.71 57.55 -40.55 45.07 -40.94 31.19 C-40.42 19.91 -36.72 11.79 -28.38 4.12 C-19.47 -2.51 -10.63 -2.55 0 0 Z " fill="#FDAFAD" transform="translate(194.4375,621.0625)" />
<ns0:path d="M0 0 C12.43 5.79 20.17 14.56 25.75 26.88 C28.09 33.9 27.22 41.27 25.19 48.25 C21.38 55.47 17.83 58.93 10.38 62.31 C0.85 64.96 -6.35 64.22 -15.25 59.88 C-26.09 52.6 -33 43.49 -36.25 30.88 C-37.37 21.44 -36.22 14.04 -30.62 6.19 C-21.46 -2.81 -11.77 -4.57 0 0 Z " fill="#FDAFAD" transform="translate(155.25,702.125)" />
<ns0:path d="M0 0 C8.88 4.29 13.33 10.92 17.06 20 C19.53 30.08 19.46 39.03 15.75 48.81 C11.41 55.47 6.87 60.25 -0.25 63.81 C-9.13 64.5 -14.58 63.82 -22.25 58.81 C-31.16 49.33 -33.95 40.08 -33.57 27.41 C-32.67 17.42 -29.45 10.81 -22.25 4.06 C-14.98 -1.85 -9.04 -2.53 0 0 Z " fill="#FDB0AE" transform="translate(358.25,633.1875)" />
<ns0:path d="M0 0 C1.67 0 3.33 0 5 0 C2.88 5.3 0.25 10.07 -2.54 15.04 C-4 18 -4 18 -4 21 C-2.02 19.35 -0.04 17.7 2 16 C1.67 17.09 1.34 18.19 1 19.31 C-0.16 24.75 -0.14 29.45 0 35 C-1 35.48 -2 35.96 -3.03 36.46 C-4.32 37.09 -5.61 37.72 -6.94 38.38 C-8.23 39 -9.51 39.63 -10.84 40.27 C-14 42 -14 42 -15 44 C-14.34 44.33 -13.68 44.66 -13 45 C-14.05 45.87 -15.1 46.73 -16.19 47.62 C-22.88 53.55 -25.91 58.56 -29 67 C-29.58 68.53 -30.16 70.05 -30.75 71.62 C-31.16 72.74 -31.58 73.85 -32 75 C-31.34 75 -30.68 75 -30 75 C-29.84 78.81 -29.97 81.88 -31 85.56 C-32.39 91.72 -32.16 97.71 -32 104 C-30.68 101.69 -29.36 99.38 -28 97 C-27.67 97 -27.34 97 -27 97 C-27 105.58 -27 114.16 -27 123 C-26.34 123 -25.68 123 -25 123 C-24.01 126.3 -23.02 129.6 -22 133 C-21.84 132.34 -21.84 132.34 -21 129 C-20.34 129 -19.68 129 -19 129 C-19 130.32 -19 131.64 -19 133 C-18.34 133 -17.68 133 -17 133 C-14.31 136.75 -14.31 136.75 -12 141 C-13 145 -13 145 -15 150 C-15 151.98 -15 153.96 -15 156 C-14.67 155.67 -14.67 155.67 -13 154 C-12.75 155.9 -12.5 157.79 -12.25 159.75 C-11.23 166.51 -9.32 172.58 -7 179 C-6.67 177.68 -6.34 176.36 -6 175 C-5.34 175 -4.68 175 -4 175 C-3.67 176.98 -3.34 178.96 -3 181 C-2.01 180.67 -1.02 180.34 0 180 C0.59 180.8 1.18 181.59 1.79 182.41 C5.75 187.71 9.68 192.99 14 198 C13.67 197.01 13.34 196.02 13 195 C12.65 193 12.31 191 12 189 C15.87 192.29 19.47 195.51 22.94 199.25 C28.18 204.03 33.76 204.2 40.62 204.65 C44 205 44 205 46 207 C45.34 207.33 45.34 207.33 42 209 C48.73 209.32 53.69 208.29 60 206 C60.99 206 61.98 206 63 206 C61.9 208.76 60.76 211.5 59.5 214.19 C57.72 218.72 56.85 223.21 56 228 C57.32 228.33 58.64 228.66 60 229 C60.33 231.64 60.66 234.28 61 237 C61.33 237 61.66 237 62 237 C62 239.64 62 242.28 62 245 C62.66 245 63.32 245 64 245 C64.33 242.03 64.66 239.06 65 236 C65.33 236 65.66 236 66 236 C66.17 236.6 66.17 236.6 67.02 239.65 C67.47 241.21 67.92 242.77 68.38 244.38 C68.82 245.93 69.26 247.48 69.71 249.09 C71 253 71 253 73 255 C73.66 255 74.32 255 75 255 C75.78 256.59 76.57 258.18 77.38 259.81 C80 265 80 265 82 268 C82.33 267.01 82.66 266.02 83 265 C83.66 265 84.32 265 85 265 C85.99 266.65 86.98 268.3 88 270 C89.32 270.66 90.64 271.32 92 272 C93.36 273.64 94.7 275.31 96 277 C96.66 277.33 97.32 277.66 98 278 C97.5 276.47 97.01 274.95 96.5 273.38 C95 268 95 268 95 262 C99.11 266.11 101.89 270.26 105 275.12 C107 278 107 278 111 282 C111.5 283.01 111.99 284.02 112.5 285.06 C114 288 114 288 118 291 C118.99 291 119.98 291 121 291 C120.45 286.96 119.8 283 119 279 C124 282 124 282 128 286 C128 286.66 128 287.32 128 288 C129.32 288.66 130.64 289.32 132 290 C134.67 292.33 137.34 294.66 140 297 C141.97 298.37 143.96 299.73 146 301 C143 302 143 302 140.29 300.74 C134.85 297.47 129.75 294.25 125 290 C124.34 289.67 123.68 289.34 123 289 C123.99 290.65 124.98 292.3 126 294 C126 294.99 126 295.98 126 297 C118.75 295.19 113.46 291.94 109 286 C107.68 285.67 106.36 285.34 105 285 C102 280 102 280 102 278 C101.34 278 100.68 278 100 278 C100.45 278.89 100.91 279.77 101.38 280.69 C102.71 283.4 103.88 286.19 105 289 C100.88 287.97 99.14 286.85 95.88 284.25 C95.01 283.57 94.14 282.9 93.24 282.2 C91 280 91 280 89 275 C88.34 274.67 87.68 274.34 87 274 C87 275.32 87 276.64 87 278 C80.76 276.75 80.45 275.08 77 270 C76.11 269.3 75.23 268.6 74.31 267.88 C72 266 72 266 70 261 C68.68 261 67.36 261 66 261 C65.02 258.3 64.05 255.6 63.07 252.89 C60.24 245.24 60.24 245.24 58 243 C58 245.64 58 248.28 58 251 C57.34 251 56.68 251 56 251 C51.81 242.49 51.55 235.4 52 226 C50 227 50 227 48.88 230.06 C48.59 231.03 48.3 232 48 233 C47.67 233 47.34 233 47 233 C46.95 230.96 46.91 228.92 46.88 226.88 C46.85 225.74 46.83 224.6 46.8 223.43 C47 219.94 47.75 217.24 49 214 C47.16 214.04 45.33 214.08 43.44 214.12 C38.61 214.13 34.56 213.72 30 212 C29.67 211.67 29.34 211.34 29 211 C29 209.35 29 207.7 29 206 C27.68 206 26.36 206 25 206 C24.67 206.66 24.34 207.32 24 208 C8.82 204.96 -4.6 188.18 -13 176 C-13.7 174.91 -14.41 173.82 -15.13 172.7 C-17 170 -17 170 -19 169 C-21.06 162.83 -19.83 155.64 -19.64 149.2 C-20.01 143.86 -20.38 142.62 -24 139 C-24.33 138.17 -24.33 138.17 -26 134 C-26.66 133.67 -27.32 133.34 -28 133 C-29.1 129.96 -29.99 126.88 -30.9 123.79 C-32 121 -32 121 -35 119 C-36.84 109.82 -36.67 100.34 -37 91 C-37.07 89.66 -37.13 88.33 -37.2 86.95 C-37.45 79.7 -36.01 74.56 -33 68 C-32.67 66.35 -32.34 64.7 -32 63 C-32.66 63 -33.32 63 -34 63 C-32.85 57.27 -30.99 55.15 -27 51 C-26.34 51 -25.68 51 -25 51 C-25 49.02 -25 47.04 -25 45 C-22.88 42.44 -22.88 42.44 -20 40 C-18.95 39.09 -17.9 38.18 -16.81 37.25 C-12.37 33.69 -12.33 34 -6 34 C-6.16 33.17 -6.16 33.17 -7 29 C-7.66 28.67 -8.32 28.34 -9 28 C-8.91 25.58 -8.8 23.17 -8.69 20.75 C-8.63 19.4 -8.57 18.06 -8.51 16.67 C-8 13 -8 13 -5 9 C-4.34 7.35 -3.68 5.7 -3 4 C-2.01 2.68 -1.02 1.36 0 0 Z " fill="#B09D6D" transform="translate(102,634)" />
<ns0:path d="M0 0 C-2.79 2.54 -4.57 3.91 -8.31 4.69 C-13.72 6.61 -16.49 10.67 -20 15 C-26.78 22.78 -26.78 22.78 -30 26 C-30.16 25.34 -30.16 25.34 -31 22 C-34.08 27.26 -36.61 32.05 -38 38 C-38.16 37.34 -38.16 37.34 -39 34 C-39.66 34 -40.32 34 -41 34 C-40.84 36.31 -40.84 36.31 -40 48 C-42.8 46.18 -45.6 44.35 -48.4 42.53 C-51 41 -51 41 -53 41 C-52.34 41.66 -51.68 42.32 -51 43 C-51.91 42.84 -52.81 42.67 -53.75 42.5 C-59.21 41.86 -64.51 41.94 -70 42 C-70 42.66 -70 43.32 -70 44 C-68.68 44.66 -67.36 45.32 -66 46 C-68.58 46.65 -71.17 47.29 -73.75 47.94 C-75.19 48.3 -76.63 48.66 -78.11 49.03 C-80.74 49.68 -83.37 50.34 -86 51 C-86 51.99 -86 52.98 -86 54 C-85.67 54.16 -85.67 54.16 -84 55 C-84.74 55.44 -85.47 55.87 -86.23 56.32 C-93.9 61 -98.34 65.23 -103 73 C-104.38 74.2 -105.76 75.39 -107.19 76.62 C-108.45 77.74 -109.7 78.85 -111 80 C-111 80.99 -111 81.98 -111 83 C-109.02 83 -107.04 83 -105 83 C-105.72 83.7 -106.44 84.4 -107.19 85.12 C-109.97 87.96 -112.49 90.92 -115 94 C-115.33 93.34 -115.66 92.68 -116 92 C-117.65 92.99 -119.3 93.98 -121 95 C-121.66 95 -122.32 95 -123 95 C-122 91 -122 91 -119 87 C-118.69 86.03 -118.37 85.07 -118.05 84.07 C-116.9 80.7 -115.44 78.62 -113.19 75.88 C-112.52 75.05 -111.85 74.22 -111.17 73.37 C-109 71 -109 71 -106.29 68.94 C-104 67 -104 67 -103.19 63.06 C-102 59 -102 59 -98 56 C-94 54 -94 54 -92 54 C-92.33 52.68 -92.66 51.36 -93 50 C-89.3 47.15 -86.15 45.06 -81.75 43.44 C-78 42 -78 42 -75 38 C-71.81 36.75 -71.81 36.75 -69 36 C-69.66 34.68 -70.32 33.36 -71 32 C-66 33 -66 33 -64 35 C-60.01 36.02 -56.54 35.98 -52.38 35.94 C-47 36 -47 36 -43 38 C-42.67 36.35 -42.34 34.7 -42 33 C-39.03 23.48 -33.34 16.64 -26 10 C-25.01 10 -24.02 10 -23 10 C-23.33 11.98 -23.66 13.96 -24 16 C-23.34 16 -22.68 16 -22 16 C-21.34 14.35 -20.68 12.7 -20 11 C-13.52 3.87 -9.74 0 0 0 Z " fill="#A29055" transform="translate(220,538)" />
</ns0:g></svg>
